%TF.GenerationSoftware,KiCad,Pcbnew,5.1.9+dfsg1-1+deb11u1*%
%TF.CreationDate,2023-06-15T15:49:45+02:00*%
%TF.ProjectId,LoRa_Uno,4c6f5261-5f55-46e6-9f2e-6b696361645f,rev?*%
%TF.SameCoordinates,Original*%
%TF.FileFunction,Copper,L1,Top*%
%TF.FilePolarity,Positive*%
%FSLAX46Y46*%
G04 Gerber Fmt 4.6, Leading zero omitted, Abs format (unit mm)*
G04 Created by KiCad (PCBNEW 5.1.9+dfsg1-1+deb11u1) date 2023-06-15 15:49:45*
%MOMM*%
%LPD*%
G01*
G04 APERTURE LIST*
%TA.AperFunction,SMDPad,CuDef*%
%ADD10R,1.000000X1.500000*%
%TD*%
%TA.AperFunction,ComponentPad*%
%ADD11R,1.700000X1.700000*%
%TD*%
%TA.AperFunction,ComponentPad*%
%ADD12C,2.250000*%
%TD*%
%TA.AperFunction,ComponentPad*%
%ADD13C,1.350000*%
%TD*%
%TA.AperFunction,ComponentPad*%
%ADD14R,1.350000X1.350000*%
%TD*%
%TA.AperFunction,ComponentPad*%
%ADD15O,1.700000X1.700000*%
%TD*%
%TA.AperFunction,ComponentPad*%
%ADD16O,1.727200X2.032000*%
%TD*%
%TA.AperFunction,ComponentPad*%
%ADD17C,4.064000*%
%TD*%
%TA.AperFunction,ViaPad*%
%ADD18C,1.000000*%
%TD*%
%TA.AperFunction,Conductor*%
%ADD19C,1.000000*%
%TD*%
%TA.AperFunction,Conductor*%
%ADD20C,0.254000*%
%TD*%
%TA.AperFunction,Conductor*%
%ADD21C,0.100000*%
%TD*%
G04 APERTURE END LIST*
D10*
%TO.P,JP1,1*%
%TO.N,Net-(JP1-Pad1)*%
X152929000Y-83185000D03*
%TO.P,JP1,2*%
%TO.N,RFM95_ANT*%
X154229000Y-83185000D03*
%TO.P,JP1,3*%
%TO.N,Net-(J1-Pad1)*%
X155529000Y-83185000D03*
%TD*%
D11*
%TO.P,P9,1*%
%TO.N,Net-(JP1-Pad1)*%
X149098000Y-83185000D03*
%TD*%
D12*
%TO.P,J1,2*%
%TO.N,GND*%
X158623000Y-80645000D03*
X163703000Y-80645000D03*
X163703000Y-85725000D03*
X158623000Y-85725000D03*
%TO.P,J1,1*%
%TO.N,Net-(J1-Pad1)*%
X161163000Y-83185000D03*
%TD*%
D13*
%TO.P,U1,16*%
%TO.N,RFM95_DIO2*%
X140208000Y-92445000D03*
%TO.P,U1,15*%
%TO.N,RFM95_DIO1*%
X142208000Y-92445000D03*
%TO.P,U1,14*%
%TO.N,RFM95_DIO0*%
X144208000Y-92445000D03*
%TO.P,U1,13*%
%TO.N,+3V3*%
X146208000Y-92445000D03*
%TO.P,U1,12*%
%TO.N,RFM95_DIO4*%
X148208000Y-92445000D03*
%TO.P,U1,11*%
%TO.N,RFM95_DIO3*%
X150208000Y-92445000D03*
%TO.P,U1,10*%
%TO.N,GND*%
X152208000Y-92445000D03*
%TO.P,U1,9*%
%TO.N,RFM95_ANT*%
X154208000Y-92445000D03*
%TO.P,U1,8*%
%TO.N,GND*%
X154208000Y-106045000D03*
%TO.P,U1,7*%
%TO.N,RFM95_DIO5*%
X152208000Y-106045000D03*
%TO.P,U1,6*%
%TO.N,RFM95_RESET*%
X150208000Y-106045000D03*
%TO.P,U1,5*%
%TO.N,RFM95_NSS*%
X148208000Y-106045000D03*
%TO.P,U1,4*%
%TO.N,RFM95_SCK*%
X146208000Y-106045000D03*
%TO.P,U1,3*%
%TO.N,RFM95_MOSI*%
X144208000Y-106045000D03*
%TO.P,U1,2*%
%TO.N,RFM95_MISO*%
X142208000Y-106045000D03*
D14*
%TO.P,U1,1*%
%TO.N,GND*%
X140208000Y-106045000D03*
%TD*%
D15*
%TO.P,J7,6*%
%TO.N,Net-(J7-Pad6)*%
X165735000Y-100965000D03*
%TO.P,J7,5*%
%TO.N,Net-(J7-Pad5)*%
X163195000Y-100965000D03*
%TO.P,J7,4*%
%TO.N,Net-(J7-Pad4)*%
X165735000Y-98425000D03*
%TO.P,J7,3*%
%TO.N,Net-(J7-Pad3)*%
X163195000Y-98425000D03*
%TO.P,J7,2*%
%TO.N,Net-(J7-Pad2)*%
X165735000Y-95885000D03*
D11*
%TO.P,J7,1*%
%TO.N,Net-(J7-Pad1)*%
X163195000Y-95885000D03*
%TD*%
D16*
%TO.P,P1,1*%
%TO.N,Net-(P1-Pad1)*%
X127508000Y-123825000D03*
%TO.P,P1,2*%
%TO.N,/IOREF*%
X130048000Y-123825000D03*
%TO.P,P1,3*%
%TO.N,/Reset*%
X132588000Y-123825000D03*
%TO.P,P1,4*%
%TO.N,+3V3*%
X135128000Y-123825000D03*
%TO.P,P1,5*%
%TO.N,+5V*%
X137668000Y-123825000D03*
%TO.P,P1,6*%
%TO.N,GND*%
X140208000Y-123825000D03*
%TO.P,P1,7*%
X142748000Y-123825000D03*
%TO.P,P1,8*%
%TO.N,/Vin*%
X145288000Y-123825000D03*
%TD*%
%TO.P,P2,1*%
%TO.N,/A0*%
X150368000Y-123825000D03*
%TO.P,P2,2*%
%TO.N,/A1*%
X152908000Y-123825000D03*
%TO.P,P2,3*%
%TO.N,/A2*%
X155448000Y-123825000D03*
%TO.P,P2,4*%
%TO.N,/A3*%
X157988000Y-123825000D03*
%TO.P,P2,5*%
%TO.N,/A4(SDA)*%
X160528000Y-123825000D03*
%TO.P,P2,6*%
%TO.N,/A5(SCL)*%
X163068000Y-123825000D03*
%TD*%
%TO.P,P3,1*%
%TO.N,/A5(SCL)*%
X118364000Y-75565000D03*
%TO.P,P3,2*%
%TO.N,/A4(SDA)*%
X120904000Y-75565000D03*
%TO.P,P3,3*%
%TO.N,/AREF*%
X123444000Y-75565000D03*
%TO.P,P3,4*%
%TO.N,GND*%
X125984000Y-75565000D03*
%TO.P,P3,5*%
%TO.N,/13(SCK)*%
X128524000Y-75565000D03*
%TO.P,P3,6*%
%TO.N,/12(MISO)*%
X131064000Y-75565000D03*
%TO.P,P3,7*%
%TO.N,/11(\u002A\u002A/MOSI)*%
X133604000Y-75565000D03*
%TO.P,P3,8*%
%TO.N,/10(\u002A\u002A/SS)*%
X136144000Y-75565000D03*
%TO.P,P3,9*%
%TO.N,/9(\u002A\u002A)*%
X138684000Y-75565000D03*
%TO.P,P3,10*%
%TO.N,/8*%
X141224000Y-75565000D03*
%TD*%
%TO.P,P4,1*%
%TO.N,/7*%
X145288000Y-75565000D03*
%TO.P,P4,2*%
%TO.N,/6(\u002A\u002A)*%
X147828000Y-75565000D03*
%TO.P,P4,3*%
%TO.N,/5(\u002A\u002A)*%
X150368000Y-75565000D03*
%TO.P,P4,4*%
%TO.N,/4*%
X152908000Y-75565000D03*
%TO.P,P4,5*%
%TO.N,/3(\u002A\u002A)*%
X155448000Y-75565000D03*
%TO.P,P4,6*%
%TO.N,/2*%
X157988000Y-75565000D03*
%TO.P,P4,7*%
%TO.N,/1(Tx)*%
X160528000Y-75565000D03*
%TO.P,P4,8*%
%TO.N,/0(Rx)*%
X163068000Y-75565000D03*
%TD*%
D17*
%TO.P,P5,1*%
%TO.N,Net-(P5-Pad1)*%
X113538000Y-123825000D03*
%TD*%
%TO.P,P6,1*%
%TO.N,Net-(P6-Pad1)*%
X165608000Y-118745000D03*
%TD*%
%TO.P,P7,1*%
%TO.N,Net-(P7-Pad1)*%
X114808000Y-75565000D03*
%TD*%
%TO.P,P8,1*%
%TO.N,Net-(P8-Pad1)*%
X165608000Y-90805000D03*
%TD*%
D11*
%TO.P,J2,1*%
%TO.N,RFM95_DIO0*%
X117348000Y-95885000D03*
D15*
%TO.P,J2,2*%
%TO.N,RFM95_DIO1*%
X119888000Y-95885000D03*
%TO.P,J2,3*%
%TO.N,+3V3*%
X122428000Y-95885000D03*
%TO.P,J2,4*%
%TO.N,GND*%
X124968000Y-95885000D03*
%TO.P,J2,5*%
%TO.N,RFM95_RESET*%
X127508000Y-95885000D03*
%TO.P,J2,6*%
%TO.N,RFM95_NSS*%
X130048000Y-95885000D03*
%TD*%
%TO.P,J3,6*%
%TO.N,Net-(J3-Pad6)*%
X130048000Y-113665000D03*
%TO.P,J3,5*%
%TO.N,RFM95_MISO*%
X127508000Y-113665000D03*
%TO.P,J3,4*%
%TO.N,GND*%
X124968000Y-113665000D03*
%TO.P,J3,3*%
%TO.N,+3V3*%
X122428000Y-113665000D03*
%TO.P,J3,2*%
%TO.N,RFM95_MOSI*%
X119888000Y-113665000D03*
D11*
%TO.P,J3,1*%
%TO.N,RFM95_SCK*%
X117348000Y-113665000D03*
%TD*%
%TO.P,J5,1*%
%TO.N,/2*%
X117348000Y-85725000D03*
D15*
%TO.P,J5,2*%
%TO.N,/3(\u002A\u002A)*%
X119888000Y-85725000D03*
%TO.P,J5,3*%
%TO.N,+5V*%
X122428000Y-85725000D03*
%TO.P,J5,4*%
%TO.N,GND*%
X124968000Y-85725000D03*
%TO.P,J5,5*%
%TO.N,/5(\u002A\u002A)*%
X127508000Y-85725000D03*
%TO.P,J5,6*%
%TO.N,/10(\u002A\u002A/SS)*%
X130048000Y-85725000D03*
%TD*%
%TO.P,J6,6*%
%TO.N,Net-(J6-Pad6)*%
X130048000Y-103505000D03*
%TO.P,J6,5*%
%TO.N,/12(MISO)*%
X127508000Y-103505000D03*
%TO.P,J6,4*%
%TO.N,GND*%
X124968000Y-103505000D03*
%TO.P,J6,3*%
%TO.N,+5V*%
X122428000Y-103505000D03*
%TO.P,J6,2*%
%TO.N,/11(\u002A\u002A/MOSI)*%
X119888000Y-103505000D03*
D11*
%TO.P,J6,1*%
%TO.N,/13(SCK)*%
X117348000Y-103505000D03*
%TD*%
D18*
%TO.N,/5(\u002A\u002A)*%
X133112800Y-85190600D03*
%TO.N,/3(\u002A\u002A)*%
X161246300Y-110259400D03*
%TO.N,/2*%
X132108600Y-80064200D03*
%TO.N,/13(SCK)*%
X116438100Y-99717200D03*
%TO.N,/10(\u002A\u002A/SS)*%
X133337600Y-78136400D03*
%TO.N,RFM95_DIO0*%
X123767700Y-100425600D03*
%TO.N,RFM95_DIO1*%
X123767700Y-99196300D03*
%TO.N,RFM95_RESET*%
X132505000Y-93126300D03*
%TO.N,RFM95_NSS*%
X132541500Y-94358700D03*
%TO.N,RFM95_MISO*%
X126290900Y-109371400D03*
%TD*%
D19*
%TO.N,+5V*%
X122428000Y-103505000D02*
X122428000Y-101655000D01*
X122428000Y-101655000D02*
X120383200Y-101655000D01*
X120383200Y-101655000D02*
X115797500Y-97069300D01*
X115797500Y-97069300D02*
X115797500Y-94205500D01*
X115797500Y-94205500D02*
X122428000Y-87575000D01*
X122428000Y-85725000D02*
X122428000Y-87575000D01*
%TO.N,GND*%
X124968000Y-113665000D02*
X130903500Y-119600500D01*
X130903500Y-119600500D02*
X135983500Y-119600500D01*
X135983500Y-119600500D02*
X140208000Y-123825000D01*
X142748000Y-123825000D02*
X140208000Y-123825000D01*
X124968000Y-101655000D02*
X124968000Y-97735000D01*
X125984000Y-75565000D02*
X125984000Y-77581000D01*
X124968000Y-85725000D02*
X124968000Y-78597000D01*
X124968000Y-78597000D02*
X125984000Y-77581000D01*
X152208000Y-92445000D02*
X153624500Y-93861500D01*
X153624500Y-93861500D02*
X154740700Y-93861500D01*
X154740700Y-93861500D02*
X158623000Y-89979200D01*
X158623000Y-89979200D02*
X158623000Y-85725000D01*
X124968000Y-103505000D02*
X124968000Y-101655000D01*
X124968000Y-95885000D02*
X124968000Y-97735000D01*
X163703000Y-80645000D02*
X158623000Y-80645000D01*
X158623000Y-85725000D02*
X163703000Y-85725000D01*
%TO.N,/5(\u002A\u002A)*%
X133112800Y-85190600D02*
X140742400Y-85190600D01*
X140742400Y-85190600D02*
X150368000Y-75565000D01*
%TO.N,/3(\u002A\u002A)*%
X119888000Y-87575000D02*
X114538300Y-92924700D01*
X114538300Y-92924700D02*
X114538300Y-113551700D01*
X114538300Y-113551700D02*
X126584600Y-125598000D01*
X126584600Y-125598000D02*
X145907700Y-125598000D01*
X145907700Y-125598000D02*
X161246300Y-110259400D01*
X119888000Y-85725000D02*
X119888000Y-87575000D01*
%TO.N,/2*%
X132108600Y-80064200D02*
X139176900Y-80064200D01*
X139176900Y-80064200D02*
X143256000Y-75985100D01*
X143256000Y-75985100D02*
X143256000Y-75183800D01*
X143256000Y-75183800D02*
X144647800Y-73792000D01*
X144647800Y-73792000D02*
X156215000Y-73792000D01*
X156215000Y-73792000D02*
X157988000Y-75565000D01*
%TO.N,/13(SCK)*%
X117348000Y-103505000D02*
X117348000Y-101655000D01*
X117348000Y-101655000D02*
X116438100Y-100745100D01*
X116438100Y-100745100D02*
X116438100Y-99717200D01*
%TO.N,/10(\u002A\u002A/SS)*%
X136144000Y-75565000D02*
X133572600Y-78136400D01*
X133572600Y-78136400D02*
X133337600Y-78136400D01*
%TO.N,+3V3*%
X122732700Y-113622200D02*
X130981600Y-121871200D01*
X130981600Y-121871200D02*
X133174200Y-121871200D01*
X133174200Y-121871200D02*
X135128000Y-123825000D01*
X122428000Y-113665000D02*
X122470800Y-113622200D01*
X122470800Y-113622200D02*
X122732600Y-113622200D01*
X122732600Y-113622200D02*
X122732700Y-113622200D01*
X146208000Y-92445000D02*
X155602300Y-101839300D01*
X155602300Y-101839300D02*
X155602300Y-106659700D01*
X155602300Y-106659700D02*
X150147300Y-112114700D01*
X150147300Y-112114700D02*
X124240200Y-112114700D01*
X124240200Y-112114700D02*
X122732700Y-113622200D01*
%TO.N,/12(MISO)*%
X131064000Y-77581000D02*
X130894200Y-77750800D01*
X130894200Y-77750800D02*
X130894200Y-84199400D01*
X130894200Y-84199400D02*
X131632800Y-84938000D01*
X131632800Y-84938000D02*
X131632800Y-87242600D01*
X131632800Y-87242600D02*
X131304700Y-87570700D01*
X131304700Y-87570700D02*
X131304700Y-94819400D01*
X131304700Y-94819400D02*
X131600100Y-95114800D01*
X131600100Y-95114800D02*
X131600100Y-97562900D01*
X131600100Y-97562900D02*
X127508000Y-101655000D01*
X131064000Y-75565000D02*
X131064000Y-77581000D01*
X127508000Y-103505000D02*
X127508000Y-101655000D01*
%TO.N,RFM95_ANT*%
X154208000Y-92445000D02*
X154229000Y-92424000D01*
X154229000Y-92424000D02*
X154229000Y-83185000D01*
%TO.N,RFM95_DIO0*%
X117348000Y-95885000D02*
X121888600Y-100425600D01*
X121888600Y-100425600D02*
X123767700Y-100425600D01*
%TO.N,RFM95_DIO1*%
X119888000Y-95885000D02*
X123199300Y-99196300D01*
X123199300Y-99196300D02*
X123767700Y-99196300D01*
%TO.N,RFM95_RESET*%
X150208000Y-106045000D02*
X137289300Y-93126300D01*
X137289300Y-93126300D02*
X132505000Y-93126300D01*
%TO.N,RFM95_NSS*%
X132541500Y-94358700D02*
X136521700Y-94358700D01*
X136521700Y-94358700D02*
X148208000Y-106045000D01*
%TO.N,RFM95_MISO*%
X126290900Y-109371400D02*
X131152200Y-109371400D01*
X131152200Y-109371400D02*
X135853900Y-104669700D01*
X135853900Y-104669700D02*
X141173100Y-104669700D01*
X141173100Y-104669700D02*
X142208000Y-105704600D01*
X142208000Y-105704600D02*
X142208000Y-106045000D01*
%TO.N,RFM95_MOSI*%
X119888000Y-113665000D02*
X122981300Y-110571700D01*
X122981300Y-110571700D02*
X139681300Y-110571700D01*
X139681300Y-110571700D02*
X144208000Y-106045000D01*
%TO.N,RFM95_SCK*%
X117348000Y-113665000D02*
X123975300Y-107037700D01*
X123975300Y-107037700D02*
X129232100Y-107037700D01*
X129232100Y-107037700D02*
X132805900Y-103463900D01*
X132805900Y-103463900D02*
X143626900Y-103463900D01*
X143626900Y-103463900D02*
X146208000Y-106045000D01*
%TO.N,Net-(J1-Pad1)*%
X161163000Y-83185000D02*
X155529000Y-83185000D01*
%TO.N,Net-(JP1-Pad1)*%
X149098000Y-83185000D02*
X152929000Y-83185000D01*
%TD*%
D20*
%TO.N,GND*%
X112736406Y-73864887D02*
X112444536Y-74301702D01*
X112243492Y-74787065D01*
X112141000Y-75302323D01*
X112141000Y-75827677D01*
X112243492Y-76342935D01*
X112444536Y-76828298D01*
X112736406Y-77265113D01*
X113107887Y-77636594D01*
X113544702Y-77928464D01*
X114030065Y-78129508D01*
X114545323Y-78232000D01*
X115070677Y-78232000D01*
X115585935Y-78129508D01*
X116071298Y-77928464D01*
X116508113Y-77636594D01*
X116879594Y-77265113D01*
X117171464Y-76828298D01*
X117227001Y-76694219D01*
X117299203Y-76782197D01*
X117527395Y-76969469D01*
X117787737Y-77108625D01*
X118070224Y-77194316D01*
X118364000Y-77223251D01*
X118657777Y-77194316D01*
X118940264Y-77108625D01*
X119200606Y-76969469D01*
X119428797Y-76782197D01*
X119616069Y-76554006D01*
X119634000Y-76520459D01*
X119651931Y-76554006D01*
X119839203Y-76782197D01*
X120067395Y-76969469D01*
X120327737Y-77108625D01*
X120610224Y-77194316D01*
X120904000Y-77223251D01*
X121197777Y-77194316D01*
X121480264Y-77108625D01*
X121740606Y-76969469D01*
X121968797Y-76782197D01*
X122156069Y-76554006D01*
X122174000Y-76520459D01*
X122191931Y-76554006D01*
X122379203Y-76782197D01*
X122607395Y-76969469D01*
X122867737Y-77108625D01*
X123150224Y-77194316D01*
X123444000Y-77223251D01*
X123737777Y-77194316D01*
X124020264Y-77108625D01*
X124280606Y-76969469D01*
X124508797Y-76782197D01*
X124696069Y-76554006D01*
X124717424Y-76514053D01*
X124865514Y-76716729D01*
X125081965Y-76915733D01*
X125333081Y-77068686D01*
X125609211Y-77169709D01*
X125624974Y-77172358D01*
X125857000Y-77051217D01*
X125857000Y-75692000D01*
X125837000Y-75692000D01*
X125837000Y-75438000D01*
X125857000Y-75438000D01*
X125857000Y-74078783D01*
X125624974Y-73957642D01*
X125609211Y-73960291D01*
X125333081Y-74061314D01*
X125081965Y-74214267D01*
X124865514Y-74413271D01*
X124717424Y-74615947D01*
X124696069Y-74575994D01*
X124508797Y-74347803D01*
X124280605Y-74160531D01*
X124020263Y-74021375D01*
X123737776Y-73935684D01*
X123444000Y-73906749D01*
X123150223Y-73935684D01*
X122867736Y-74021375D01*
X122607394Y-74160531D01*
X122379203Y-74347803D01*
X122191931Y-74575995D01*
X122174000Y-74609541D01*
X122156069Y-74575994D01*
X121968797Y-74347803D01*
X121740605Y-74160531D01*
X121480263Y-74021375D01*
X121197776Y-73935684D01*
X120904000Y-73906749D01*
X120610223Y-73935684D01*
X120327736Y-74021375D01*
X120067394Y-74160531D01*
X119839203Y-74347803D01*
X119651931Y-74575995D01*
X119634000Y-74609541D01*
X119616069Y-74575994D01*
X119428797Y-74347803D01*
X119200605Y-74160531D01*
X118940263Y-74021375D01*
X118657776Y-73935684D01*
X118364000Y-73906749D01*
X118070223Y-73935684D01*
X117787736Y-74021375D01*
X117527394Y-74160531D01*
X117299203Y-74347803D01*
X117227001Y-74435781D01*
X117171464Y-74301702D01*
X116879594Y-73864887D01*
X116749707Y-73735000D01*
X143099669Y-73735000D01*
X142492860Y-74341809D01*
X142449552Y-74377351D01*
X142381299Y-74460517D01*
X142288797Y-74347803D01*
X142060605Y-74160531D01*
X141800263Y-74021375D01*
X141517776Y-73935684D01*
X141224000Y-73906749D01*
X140930223Y-73935684D01*
X140647736Y-74021375D01*
X140387394Y-74160531D01*
X140159203Y-74347803D01*
X139971931Y-74575995D01*
X139954000Y-74609541D01*
X139936069Y-74575994D01*
X139748797Y-74347803D01*
X139520605Y-74160531D01*
X139260263Y-74021375D01*
X138977776Y-73935684D01*
X138684000Y-73906749D01*
X138390223Y-73935684D01*
X138107736Y-74021375D01*
X137847394Y-74160531D01*
X137619203Y-74347803D01*
X137431931Y-74575995D01*
X137414000Y-74609541D01*
X137396069Y-74575994D01*
X137208797Y-74347803D01*
X136980605Y-74160531D01*
X136720263Y-74021375D01*
X136437776Y-73935684D01*
X136144000Y-73906749D01*
X135850223Y-73935684D01*
X135567736Y-74021375D01*
X135307394Y-74160531D01*
X135079203Y-74347803D01*
X134891931Y-74575995D01*
X134874000Y-74609541D01*
X134856069Y-74575994D01*
X134668797Y-74347803D01*
X134440605Y-74160531D01*
X134180263Y-74021375D01*
X133897776Y-73935684D01*
X133604000Y-73906749D01*
X133310223Y-73935684D01*
X133027736Y-74021375D01*
X132767394Y-74160531D01*
X132539203Y-74347803D01*
X132351931Y-74575995D01*
X132334000Y-74609541D01*
X132316069Y-74575994D01*
X132128797Y-74347803D01*
X131900605Y-74160531D01*
X131640263Y-74021375D01*
X131357776Y-73935684D01*
X131064000Y-73906749D01*
X130770223Y-73935684D01*
X130487736Y-74021375D01*
X130227394Y-74160531D01*
X129999203Y-74347803D01*
X129811931Y-74575995D01*
X129794000Y-74609541D01*
X129776069Y-74575994D01*
X129588797Y-74347803D01*
X129360605Y-74160531D01*
X129100263Y-74021375D01*
X128817776Y-73935684D01*
X128524000Y-73906749D01*
X128230223Y-73935684D01*
X127947736Y-74021375D01*
X127687394Y-74160531D01*
X127459203Y-74347803D01*
X127271931Y-74575995D01*
X127250576Y-74615947D01*
X127102486Y-74413271D01*
X126886035Y-74214267D01*
X126634919Y-74061314D01*
X126358789Y-73960291D01*
X126343026Y-73957642D01*
X126111000Y-74078783D01*
X126111000Y-75438000D01*
X126131000Y-75438000D01*
X126131000Y-75692000D01*
X126111000Y-75692000D01*
X126111000Y-77051217D01*
X126343026Y-77172358D01*
X126358789Y-77169709D01*
X126634919Y-77068686D01*
X126886035Y-76915733D01*
X127102486Y-76716729D01*
X127250576Y-76514053D01*
X127271931Y-76554006D01*
X127459203Y-76782197D01*
X127687395Y-76969469D01*
X127947737Y-77108625D01*
X128230224Y-77194316D01*
X128524000Y-77223251D01*
X128817777Y-77194316D01*
X129100264Y-77108625D01*
X129360606Y-76969469D01*
X129588797Y-76782197D01*
X129776069Y-76554006D01*
X129794000Y-76520459D01*
X129811931Y-76554006D01*
X129929001Y-76696655D01*
X129929001Y-77148824D01*
X129866844Y-77265113D01*
X129840524Y-77314354D01*
X129775623Y-77528302D01*
X129753709Y-77750800D01*
X129759200Y-77806552D01*
X129759201Y-84143639D01*
X129753709Y-84199400D01*
X129760475Y-84268100D01*
X129614842Y-84297068D01*
X129344589Y-84409010D01*
X129101368Y-84571525D01*
X128894525Y-84778368D01*
X128778000Y-84952760D01*
X128661475Y-84778368D01*
X128454632Y-84571525D01*
X128211411Y-84409010D01*
X127941158Y-84297068D01*
X127654260Y-84240000D01*
X127361740Y-84240000D01*
X127074842Y-84297068D01*
X126804589Y-84409010D01*
X126561368Y-84571525D01*
X126354525Y-84778368D01*
X126232805Y-84960534D01*
X126163178Y-84843645D01*
X125968269Y-84627412D01*
X125734920Y-84453359D01*
X125472099Y-84328175D01*
X125324890Y-84283524D01*
X125095000Y-84404845D01*
X125095000Y-85598000D01*
X125115000Y-85598000D01*
X125115000Y-85852000D01*
X125095000Y-85852000D01*
X125095000Y-87045155D01*
X125324890Y-87166476D01*
X125472099Y-87121825D01*
X125734920Y-86996641D01*
X125968269Y-86822588D01*
X126163178Y-86606355D01*
X126232805Y-86489466D01*
X126354525Y-86671632D01*
X126561368Y-86878475D01*
X126804589Y-87040990D01*
X127074842Y-87152932D01*
X127361740Y-87210000D01*
X127654260Y-87210000D01*
X127941158Y-87152932D01*
X128211411Y-87040990D01*
X128454632Y-86878475D01*
X128661475Y-86671632D01*
X128778000Y-86497240D01*
X128894525Y-86671632D01*
X129101368Y-86878475D01*
X129344589Y-87040990D01*
X129614842Y-87152932D01*
X129901740Y-87210000D01*
X130194260Y-87210000D01*
X130230216Y-87202848D01*
X130186123Y-87348202D01*
X130164209Y-87570700D01*
X130169700Y-87626452D01*
X130169701Y-94400000D01*
X129901740Y-94400000D01*
X129614842Y-94457068D01*
X129344589Y-94569010D01*
X129101368Y-94731525D01*
X128894525Y-94938368D01*
X128778000Y-95112760D01*
X128661475Y-94938368D01*
X128454632Y-94731525D01*
X128211411Y-94569010D01*
X127941158Y-94457068D01*
X127654260Y-94400000D01*
X127361740Y-94400000D01*
X127074842Y-94457068D01*
X126804589Y-94569010D01*
X126561368Y-94731525D01*
X126354525Y-94938368D01*
X126232805Y-95120534D01*
X126163178Y-95003645D01*
X125968269Y-94787412D01*
X125734920Y-94613359D01*
X125472099Y-94488175D01*
X125324890Y-94443524D01*
X125095000Y-94564845D01*
X125095000Y-95758000D01*
X125115000Y-95758000D01*
X125115000Y-96012000D01*
X125095000Y-96012000D01*
X125095000Y-97205155D01*
X125324890Y-97326476D01*
X125472099Y-97281825D01*
X125734920Y-97156641D01*
X125968269Y-96982588D01*
X126163178Y-96766355D01*
X126232805Y-96649466D01*
X126354525Y-96831632D01*
X126561368Y-97038475D01*
X126804589Y-97200990D01*
X127074842Y-97312932D01*
X127361740Y-97370000D01*
X127654260Y-97370000D01*
X127941158Y-97312932D01*
X128211411Y-97200990D01*
X128454632Y-97038475D01*
X128661475Y-96831632D01*
X128778000Y-96657240D01*
X128894525Y-96831632D01*
X129101368Y-97038475D01*
X129344589Y-97200990D01*
X129614842Y-97312932D01*
X129901740Y-97370000D01*
X130187868Y-97370000D01*
X126744860Y-100813009D01*
X126701552Y-100848551D01*
X126559717Y-101021377D01*
X126539489Y-101059222D01*
X126454324Y-101218554D01*
X126389423Y-101432502D01*
X126367509Y-101655000D01*
X126373001Y-101710761D01*
X126373001Y-102539892D01*
X126354525Y-102558368D01*
X126232805Y-102740534D01*
X126163178Y-102623645D01*
X125968269Y-102407412D01*
X125734920Y-102233359D01*
X125472099Y-102108175D01*
X125324890Y-102063524D01*
X125095000Y-102184845D01*
X125095000Y-103378000D01*
X125115000Y-103378000D01*
X125115000Y-103632000D01*
X125095000Y-103632000D01*
X125095000Y-104825155D01*
X125324890Y-104946476D01*
X125472099Y-104901825D01*
X125734920Y-104776641D01*
X125968269Y-104602588D01*
X126163178Y-104386355D01*
X126232805Y-104269466D01*
X126354525Y-104451632D01*
X126561368Y-104658475D01*
X126804589Y-104820990D01*
X127074842Y-104932932D01*
X127361740Y-104990000D01*
X127654260Y-104990000D01*
X127941158Y-104932932D01*
X128211411Y-104820990D01*
X128454632Y-104658475D01*
X128661475Y-104451632D01*
X128778000Y-104277240D01*
X128894525Y-104451632D01*
X129101368Y-104658475D01*
X129344589Y-104820990D01*
X129614842Y-104932932D01*
X129712342Y-104952326D01*
X128761969Y-105902700D01*
X124031052Y-105902700D01*
X123975300Y-105897209D01*
X123752801Y-105919123D01*
X123538853Y-105984024D01*
X123341677Y-106089416D01*
X123212156Y-106195711D01*
X123212154Y-106195713D01*
X123168851Y-106231251D01*
X123133313Y-106274554D01*
X117230941Y-112176928D01*
X116498000Y-112176928D01*
X116373518Y-112189188D01*
X116253820Y-112225498D01*
X116143506Y-112284463D01*
X116046815Y-112363815D01*
X115967463Y-112460506D01*
X115908498Y-112570820D01*
X115872188Y-112690518D01*
X115859928Y-112815000D01*
X115859928Y-113268197D01*
X115673300Y-113081569D01*
X115673300Y-101585730D01*
X115674964Y-101587095D01*
X116188357Y-102100489D01*
X116143506Y-102124463D01*
X116046815Y-102203815D01*
X115967463Y-102300506D01*
X115908498Y-102410820D01*
X115872188Y-102530518D01*
X115859928Y-102655000D01*
X115859928Y-104355000D01*
X115872188Y-104479482D01*
X115908498Y-104599180D01*
X115967463Y-104709494D01*
X116046815Y-104806185D01*
X116143506Y-104885537D01*
X116253820Y-104944502D01*
X116373518Y-104980812D01*
X116498000Y-104993072D01*
X118198000Y-104993072D01*
X118322482Y-104980812D01*
X118442180Y-104944502D01*
X118552494Y-104885537D01*
X118649185Y-104806185D01*
X118728537Y-104709494D01*
X118787502Y-104599180D01*
X118809513Y-104526620D01*
X118941368Y-104658475D01*
X119184589Y-104820990D01*
X119454842Y-104932932D01*
X119741740Y-104990000D01*
X120034260Y-104990000D01*
X120321158Y-104932932D01*
X120591411Y-104820990D01*
X120834632Y-104658475D01*
X121041475Y-104451632D01*
X121158000Y-104277240D01*
X121274525Y-104451632D01*
X121481368Y-104658475D01*
X121724589Y-104820990D01*
X121994842Y-104932932D01*
X122281740Y-104990000D01*
X122574260Y-104990000D01*
X122861158Y-104932932D01*
X123131411Y-104820990D01*
X123374632Y-104658475D01*
X123581475Y-104451632D01*
X123703195Y-104269466D01*
X123772822Y-104386355D01*
X123967731Y-104602588D01*
X124201080Y-104776641D01*
X124463901Y-104901825D01*
X124611110Y-104946476D01*
X124841000Y-104825155D01*
X124841000Y-103632000D01*
X124821000Y-103632000D01*
X124821000Y-103378000D01*
X124841000Y-103378000D01*
X124841000Y-102184845D01*
X124611110Y-102063524D01*
X124463901Y-102108175D01*
X124201080Y-102233359D01*
X123967731Y-102407412D01*
X123772822Y-102623645D01*
X123703195Y-102740534D01*
X123581475Y-102558368D01*
X123563000Y-102539893D01*
X123563000Y-101710752D01*
X123568491Y-101655000D01*
X123559194Y-101560600D01*
X123879488Y-101560600D01*
X123934447Y-101549668D01*
X123990199Y-101544177D01*
X124043806Y-101527915D01*
X124098767Y-101516983D01*
X124150542Y-101495537D01*
X124204147Y-101479276D01*
X124253551Y-101452869D01*
X124305324Y-101431424D01*
X124351914Y-101400293D01*
X124401323Y-101373884D01*
X124444632Y-101338341D01*
X124491220Y-101307212D01*
X124530841Y-101267591D01*
X124574149Y-101232049D01*
X124609691Y-101188741D01*
X124649312Y-101149120D01*
X124680441Y-101102532D01*
X124715984Y-101059223D01*
X124742393Y-101009814D01*
X124773524Y-100963224D01*
X124794969Y-100911451D01*
X124821376Y-100862047D01*
X124837637Y-100808442D01*
X124859083Y-100756667D01*
X124870015Y-100701706D01*
X124886277Y-100648099D01*
X124891768Y-100592347D01*
X124902700Y-100537388D01*
X124902700Y-100481352D01*
X124908191Y-100425600D01*
X124902700Y-100369848D01*
X124902700Y-100313812D01*
X124891768Y-100258853D01*
X124886277Y-100203101D01*
X124870015Y-100149494D01*
X124859083Y-100094533D01*
X124837637Y-100042758D01*
X124821376Y-99989153D01*
X124794969Y-99939749D01*
X124773524Y-99887976D01*
X124742393Y-99841386D01*
X124726125Y-99810950D01*
X124742393Y-99780514D01*
X124773524Y-99733924D01*
X124794969Y-99682151D01*
X124821376Y-99632747D01*
X124837637Y-99579142D01*
X124859083Y-99527367D01*
X124870015Y-99472406D01*
X124886277Y-99418799D01*
X124891768Y-99363047D01*
X124902700Y-99308088D01*
X124902700Y-99252052D01*
X124908191Y-99196300D01*
X124902700Y-99140548D01*
X124902700Y-99084512D01*
X124891768Y-99029553D01*
X124886277Y-98973801D01*
X124870015Y-98920194D01*
X124859083Y-98865233D01*
X124837637Y-98813458D01*
X124821376Y-98759853D01*
X124794969Y-98710449D01*
X124773524Y-98658676D01*
X124742393Y-98612086D01*
X124715984Y-98562677D01*
X124680441Y-98519368D01*
X124649312Y-98472780D01*
X124609691Y-98433159D01*
X124574149Y-98389851D01*
X124530841Y-98354309D01*
X124491220Y-98314688D01*
X124444632Y-98283559D01*
X124401323Y-98248016D01*
X124351914Y-98221607D01*
X124305324Y-98190476D01*
X124253551Y-98169031D01*
X124204147Y-98142624D01*
X124150542Y-98126363D01*
X124098767Y-98104917D01*
X124043806Y-98093985D01*
X123990199Y-98077723D01*
X123934447Y-98072232D01*
X123879488Y-98061300D01*
X123669432Y-98061300D01*
X122903518Y-97295386D01*
X123131411Y-97200990D01*
X123374632Y-97038475D01*
X123581475Y-96831632D01*
X123703195Y-96649466D01*
X123772822Y-96766355D01*
X123967731Y-96982588D01*
X124201080Y-97156641D01*
X124463901Y-97281825D01*
X124611110Y-97326476D01*
X124841000Y-97205155D01*
X124841000Y-96012000D01*
X124821000Y-96012000D01*
X124821000Y-95758000D01*
X124841000Y-95758000D01*
X124841000Y-94564845D01*
X124611110Y-94443524D01*
X124463901Y-94488175D01*
X124201080Y-94613359D01*
X123967731Y-94787412D01*
X123772822Y-95003645D01*
X123703195Y-95120534D01*
X123581475Y-94938368D01*
X123374632Y-94731525D01*
X123131411Y-94569010D01*
X122861158Y-94457068D01*
X122574260Y-94400000D01*
X122281740Y-94400000D01*
X121994842Y-94457068D01*
X121724589Y-94569010D01*
X121481368Y-94731525D01*
X121274525Y-94938368D01*
X121158000Y-95112760D01*
X121041475Y-94938368D01*
X120834632Y-94731525D01*
X120591411Y-94569010D01*
X120321158Y-94457068D01*
X120034260Y-94400000D01*
X119741740Y-94400000D01*
X119454842Y-94457068D01*
X119184589Y-94569010D01*
X118941368Y-94731525D01*
X118809513Y-94863380D01*
X118787502Y-94790820D01*
X118728537Y-94680506D01*
X118649185Y-94583815D01*
X118552494Y-94504463D01*
X118442180Y-94445498D01*
X118322482Y-94409188D01*
X118198000Y-94396928D01*
X117211203Y-94396928D01*
X123191141Y-88416991D01*
X123234449Y-88381449D01*
X123376284Y-88208623D01*
X123481676Y-88011447D01*
X123546577Y-87797499D01*
X123563000Y-87630752D01*
X123568491Y-87575001D01*
X123563000Y-87519249D01*
X123563000Y-86690107D01*
X123581475Y-86671632D01*
X123703195Y-86489466D01*
X123772822Y-86606355D01*
X123967731Y-86822588D01*
X124201080Y-86996641D01*
X124463901Y-87121825D01*
X124611110Y-87166476D01*
X124841000Y-87045155D01*
X124841000Y-85852000D01*
X124821000Y-85852000D01*
X124821000Y-85598000D01*
X124841000Y-85598000D01*
X124841000Y-84404845D01*
X124611110Y-84283524D01*
X124463901Y-84328175D01*
X124201080Y-84453359D01*
X123967731Y-84627412D01*
X123772822Y-84843645D01*
X123703195Y-84960534D01*
X123581475Y-84778368D01*
X123374632Y-84571525D01*
X123131411Y-84409010D01*
X122861158Y-84297068D01*
X122574260Y-84240000D01*
X122281740Y-84240000D01*
X121994842Y-84297068D01*
X121724589Y-84409010D01*
X121481368Y-84571525D01*
X121274525Y-84778368D01*
X121158000Y-84952760D01*
X121041475Y-84778368D01*
X120834632Y-84571525D01*
X120591411Y-84409010D01*
X120321158Y-84297068D01*
X120034260Y-84240000D01*
X119741740Y-84240000D01*
X119454842Y-84297068D01*
X119184589Y-84409010D01*
X118941368Y-84571525D01*
X118809513Y-84703380D01*
X118787502Y-84630820D01*
X118728537Y-84520506D01*
X118649185Y-84423815D01*
X118552494Y-84344463D01*
X118442180Y-84285498D01*
X118322482Y-84249188D01*
X118198000Y-84236928D01*
X116498000Y-84236928D01*
X116373518Y-84249188D01*
X116253820Y-84285498D01*
X116143506Y-84344463D01*
X116046815Y-84423815D01*
X115967463Y-84520506D01*
X115908498Y-84630820D01*
X115872188Y-84750518D01*
X115859928Y-84875000D01*
X115859928Y-86575000D01*
X115872188Y-86699482D01*
X115908498Y-86819180D01*
X115967463Y-86929494D01*
X116046815Y-87026185D01*
X116143506Y-87105537D01*
X116253820Y-87164502D01*
X116373518Y-87200812D01*
X116498000Y-87213072D01*
X118198000Y-87213072D01*
X118322482Y-87200812D01*
X118442180Y-87164502D01*
X118552494Y-87105537D01*
X118649185Y-87026185D01*
X118728537Y-86929494D01*
X118753001Y-86883727D01*
X118753001Y-87104867D01*
X113775165Y-92082704D01*
X113731851Y-92118251D01*
X113590016Y-92291077D01*
X113489169Y-92479751D01*
X113484624Y-92488254D01*
X113419723Y-92702202D01*
X113397809Y-92924700D01*
X113403300Y-92980451D01*
X113403301Y-113495938D01*
X113397809Y-113551700D01*
X113419723Y-113774198D01*
X113484624Y-113988146D01*
X113484625Y-113988147D01*
X113590017Y-114185323D01*
X113731852Y-114358149D01*
X113775160Y-114393691D01*
X125036468Y-125655000D01*
X115479707Y-125655000D01*
X115609594Y-125525113D01*
X115901464Y-125088298D01*
X116102508Y-124602935D01*
X116205000Y-124087677D01*
X116205000Y-123562323D01*
X116102508Y-123047065D01*
X115901464Y-122561702D01*
X115609594Y-122124887D01*
X115238113Y-121753406D01*
X114801298Y-121461536D01*
X114315935Y-121260492D01*
X113800677Y-121158000D01*
X113275323Y-121158000D01*
X112760065Y-121260492D01*
X112274702Y-121461536D01*
X111837887Y-121753406D01*
X111708000Y-121883293D01*
X111708000Y-73735000D01*
X112866293Y-73735000D01*
X112736406Y-73864887D01*
%TA.AperFunction,Conductor*%
D21*
G36*
X112736406Y-73864887D02*
G01*
X112444536Y-74301702D01*
X112243492Y-74787065D01*
X112141000Y-75302323D01*
X112141000Y-75827677D01*
X112243492Y-76342935D01*
X112444536Y-76828298D01*
X112736406Y-77265113D01*
X113107887Y-77636594D01*
X113544702Y-77928464D01*
X114030065Y-78129508D01*
X114545323Y-78232000D01*
X115070677Y-78232000D01*
X115585935Y-78129508D01*
X116071298Y-77928464D01*
X116508113Y-77636594D01*
X116879594Y-77265113D01*
X117171464Y-76828298D01*
X117227001Y-76694219D01*
X117299203Y-76782197D01*
X117527395Y-76969469D01*
X117787737Y-77108625D01*
X118070224Y-77194316D01*
X118364000Y-77223251D01*
X118657777Y-77194316D01*
X118940264Y-77108625D01*
X119200606Y-76969469D01*
X119428797Y-76782197D01*
X119616069Y-76554006D01*
X119634000Y-76520459D01*
X119651931Y-76554006D01*
X119839203Y-76782197D01*
X120067395Y-76969469D01*
X120327737Y-77108625D01*
X120610224Y-77194316D01*
X120904000Y-77223251D01*
X121197777Y-77194316D01*
X121480264Y-77108625D01*
X121740606Y-76969469D01*
X121968797Y-76782197D01*
X122156069Y-76554006D01*
X122174000Y-76520459D01*
X122191931Y-76554006D01*
X122379203Y-76782197D01*
X122607395Y-76969469D01*
X122867737Y-77108625D01*
X123150224Y-77194316D01*
X123444000Y-77223251D01*
X123737777Y-77194316D01*
X124020264Y-77108625D01*
X124280606Y-76969469D01*
X124508797Y-76782197D01*
X124696069Y-76554006D01*
X124717424Y-76514053D01*
X124865514Y-76716729D01*
X125081965Y-76915733D01*
X125333081Y-77068686D01*
X125609211Y-77169709D01*
X125624974Y-77172358D01*
X125857000Y-77051217D01*
X125857000Y-75692000D01*
X125837000Y-75692000D01*
X125837000Y-75438000D01*
X125857000Y-75438000D01*
X125857000Y-74078783D01*
X125624974Y-73957642D01*
X125609211Y-73960291D01*
X125333081Y-74061314D01*
X125081965Y-74214267D01*
X124865514Y-74413271D01*
X124717424Y-74615947D01*
X124696069Y-74575994D01*
X124508797Y-74347803D01*
X124280605Y-74160531D01*
X124020263Y-74021375D01*
X123737776Y-73935684D01*
X123444000Y-73906749D01*
X123150223Y-73935684D01*
X122867736Y-74021375D01*
X122607394Y-74160531D01*
X122379203Y-74347803D01*
X122191931Y-74575995D01*
X122174000Y-74609541D01*
X122156069Y-74575994D01*
X121968797Y-74347803D01*
X121740605Y-74160531D01*
X121480263Y-74021375D01*
X121197776Y-73935684D01*
X120904000Y-73906749D01*
X120610223Y-73935684D01*
X120327736Y-74021375D01*
X120067394Y-74160531D01*
X119839203Y-74347803D01*
X119651931Y-74575995D01*
X119634000Y-74609541D01*
X119616069Y-74575994D01*
X119428797Y-74347803D01*
X119200605Y-74160531D01*
X118940263Y-74021375D01*
X118657776Y-73935684D01*
X118364000Y-73906749D01*
X118070223Y-73935684D01*
X117787736Y-74021375D01*
X117527394Y-74160531D01*
X117299203Y-74347803D01*
X117227001Y-74435781D01*
X117171464Y-74301702D01*
X116879594Y-73864887D01*
X116749707Y-73735000D01*
X143099669Y-73735000D01*
X142492860Y-74341809D01*
X142449552Y-74377351D01*
X142381299Y-74460517D01*
X142288797Y-74347803D01*
X142060605Y-74160531D01*
X141800263Y-74021375D01*
X141517776Y-73935684D01*
X141224000Y-73906749D01*
X140930223Y-73935684D01*
X140647736Y-74021375D01*
X140387394Y-74160531D01*
X140159203Y-74347803D01*
X139971931Y-74575995D01*
X139954000Y-74609541D01*
X139936069Y-74575994D01*
X139748797Y-74347803D01*
X139520605Y-74160531D01*
X139260263Y-74021375D01*
X138977776Y-73935684D01*
X138684000Y-73906749D01*
X138390223Y-73935684D01*
X138107736Y-74021375D01*
X137847394Y-74160531D01*
X137619203Y-74347803D01*
X137431931Y-74575995D01*
X137414000Y-74609541D01*
X137396069Y-74575994D01*
X137208797Y-74347803D01*
X136980605Y-74160531D01*
X136720263Y-74021375D01*
X136437776Y-73935684D01*
X136144000Y-73906749D01*
X135850223Y-73935684D01*
X135567736Y-74021375D01*
X135307394Y-74160531D01*
X135079203Y-74347803D01*
X134891931Y-74575995D01*
X134874000Y-74609541D01*
X134856069Y-74575994D01*
X134668797Y-74347803D01*
X134440605Y-74160531D01*
X134180263Y-74021375D01*
X133897776Y-73935684D01*
X133604000Y-73906749D01*
X133310223Y-73935684D01*
X133027736Y-74021375D01*
X132767394Y-74160531D01*
X132539203Y-74347803D01*
X132351931Y-74575995D01*
X132334000Y-74609541D01*
X132316069Y-74575994D01*
X132128797Y-74347803D01*
X131900605Y-74160531D01*
X131640263Y-74021375D01*
X131357776Y-73935684D01*
X131064000Y-73906749D01*
X130770223Y-73935684D01*
X130487736Y-74021375D01*
X130227394Y-74160531D01*
X129999203Y-74347803D01*
X129811931Y-74575995D01*
X129794000Y-74609541D01*
X129776069Y-74575994D01*
X129588797Y-74347803D01*
X129360605Y-74160531D01*
X129100263Y-74021375D01*
X128817776Y-73935684D01*
X128524000Y-73906749D01*
X128230223Y-73935684D01*
X127947736Y-74021375D01*
X127687394Y-74160531D01*
X127459203Y-74347803D01*
X127271931Y-74575995D01*
X127250576Y-74615947D01*
X127102486Y-74413271D01*
X126886035Y-74214267D01*
X126634919Y-74061314D01*
X126358789Y-73960291D01*
X126343026Y-73957642D01*
X126111000Y-74078783D01*
X126111000Y-75438000D01*
X126131000Y-75438000D01*
X126131000Y-75692000D01*
X126111000Y-75692000D01*
X126111000Y-77051217D01*
X126343026Y-77172358D01*
X126358789Y-77169709D01*
X126634919Y-77068686D01*
X126886035Y-76915733D01*
X127102486Y-76716729D01*
X127250576Y-76514053D01*
X127271931Y-76554006D01*
X127459203Y-76782197D01*
X127687395Y-76969469D01*
X127947737Y-77108625D01*
X128230224Y-77194316D01*
X128524000Y-77223251D01*
X128817777Y-77194316D01*
X129100264Y-77108625D01*
X129360606Y-76969469D01*
X129588797Y-76782197D01*
X129776069Y-76554006D01*
X129794000Y-76520459D01*
X129811931Y-76554006D01*
X129929001Y-76696655D01*
X129929001Y-77148824D01*
X129866844Y-77265113D01*
X129840524Y-77314354D01*
X129775623Y-77528302D01*
X129753709Y-77750800D01*
X129759200Y-77806552D01*
X129759201Y-84143639D01*
X129753709Y-84199400D01*
X129760475Y-84268100D01*
X129614842Y-84297068D01*
X129344589Y-84409010D01*
X129101368Y-84571525D01*
X128894525Y-84778368D01*
X128778000Y-84952760D01*
X128661475Y-84778368D01*
X128454632Y-84571525D01*
X128211411Y-84409010D01*
X127941158Y-84297068D01*
X127654260Y-84240000D01*
X127361740Y-84240000D01*
X127074842Y-84297068D01*
X126804589Y-84409010D01*
X126561368Y-84571525D01*
X126354525Y-84778368D01*
X126232805Y-84960534D01*
X126163178Y-84843645D01*
X125968269Y-84627412D01*
X125734920Y-84453359D01*
X125472099Y-84328175D01*
X125324890Y-84283524D01*
X125095000Y-84404845D01*
X125095000Y-85598000D01*
X125115000Y-85598000D01*
X125115000Y-85852000D01*
X125095000Y-85852000D01*
X125095000Y-87045155D01*
X125324890Y-87166476D01*
X125472099Y-87121825D01*
X125734920Y-86996641D01*
X125968269Y-86822588D01*
X126163178Y-86606355D01*
X126232805Y-86489466D01*
X126354525Y-86671632D01*
X126561368Y-86878475D01*
X126804589Y-87040990D01*
X127074842Y-87152932D01*
X127361740Y-87210000D01*
X127654260Y-87210000D01*
X127941158Y-87152932D01*
X128211411Y-87040990D01*
X128454632Y-86878475D01*
X128661475Y-86671632D01*
X128778000Y-86497240D01*
X128894525Y-86671632D01*
X129101368Y-86878475D01*
X129344589Y-87040990D01*
X129614842Y-87152932D01*
X129901740Y-87210000D01*
X130194260Y-87210000D01*
X130230216Y-87202848D01*
X130186123Y-87348202D01*
X130164209Y-87570700D01*
X130169700Y-87626452D01*
X130169701Y-94400000D01*
X129901740Y-94400000D01*
X129614842Y-94457068D01*
X129344589Y-94569010D01*
X129101368Y-94731525D01*
X128894525Y-94938368D01*
X128778000Y-95112760D01*
X128661475Y-94938368D01*
X128454632Y-94731525D01*
X128211411Y-94569010D01*
X127941158Y-94457068D01*
X127654260Y-94400000D01*
X127361740Y-94400000D01*
X127074842Y-94457068D01*
X126804589Y-94569010D01*
X126561368Y-94731525D01*
X126354525Y-94938368D01*
X126232805Y-95120534D01*
X126163178Y-95003645D01*
X125968269Y-94787412D01*
X125734920Y-94613359D01*
X125472099Y-94488175D01*
X125324890Y-94443524D01*
X125095000Y-94564845D01*
X125095000Y-95758000D01*
X125115000Y-95758000D01*
X125115000Y-96012000D01*
X125095000Y-96012000D01*
X125095000Y-97205155D01*
X125324890Y-97326476D01*
X125472099Y-97281825D01*
X125734920Y-97156641D01*
X125968269Y-96982588D01*
X126163178Y-96766355D01*
X126232805Y-96649466D01*
X126354525Y-96831632D01*
X126561368Y-97038475D01*
X126804589Y-97200990D01*
X127074842Y-97312932D01*
X127361740Y-97370000D01*
X127654260Y-97370000D01*
X127941158Y-97312932D01*
X128211411Y-97200990D01*
X128454632Y-97038475D01*
X128661475Y-96831632D01*
X128778000Y-96657240D01*
X128894525Y-96831632D01*
X129101368Y-97038475D01*
X129344589Y-97200990D01*
X129614842Y-97312932D01*
X129901740Y-97370000D01*
X130187868Y-97370000D01*
X126744860Y-100813009D01*
X126701552Y-100848551D01*
X126559717Y-101021377D01*
X126539489Y-101059222D01*
X126454324Y-101218554D01*
X126389423Y-101432502D01*
X126367509Y-101655000D01*
X126373001Y-101710761D01*
X126373001Y-102539892D01*
X126354525Y-102558368D01*
X126232805Y-102740534D01*
X126163178Y-102623645D01*
X125968269Y-102407412D01*
X125734920Y-102233359D01*
X125472099Y-102108175D01*
X125324890Y-102063524D01*
X125095000Y-102184845D01*
X125095000Y-103378000D01*
X125115000Y-103378000D01*
X125115000Y-103632000D01*
X125095000Y-103632000D01*
X125095000Y-104825155D01*
X125324890Y-104946476D01*
X125472099Y-104901825D01*
X125734920Y-104776641D01*
X125968269Y-104602588D01*
X126163178Y-104386355D01*
X126232805Y-104269466D01*
X126354525Y-104451632D01*
X126561368Y-104658475D01*
X126804589Y-104820990D01*
X127074842Y-104932932D01*
X127361740Y-104990000D01*
X127654260Y-104990000D01*
X127941158Y-104932932D01*
X128211411Y-104820990D01*
X128454632Y-104658475D01*
X128661475Y-104451632D01*
X128778000Y-104277240D01*
X128894525Y-104451632D01*
X129101368Y-104658475D01*
X129344589Y-104820990D01*
X129614842Y-104932932D01*
X129712342Y-104952326D01*
X128761969Y-105902700D01*
X124031052Y-105902700D01*
X123975300Y-105897209D01*
X123752801Y-105919123D01*
X123538853Y-105984024D01*
X123341677Y-106089416D01*
X123212156Y-106195711D01*
X123212154Y-106195713D01*
X123168851Y-106231251D01*
X123133313Y-106274554D01*
X117230941Y-112176928D01*
X116498000Y-112176928D01*
X116373518Y-112189188D01*
X116253820Y-112225498D01*
X116143506Y-112284463D01*
X116046815Y-112363815D01*
X115967463Y-112460506D01*
X115908498Y-112570820D01*
X115872188Y-112690518D01*
X115859928Y-112815000D01*
X115859928Y-113268197D01*
X115673300Y-113081569D01*
X115673300Y-101585730D01*
X115674964Y-101587095D01*
X116188357Y-102100489D01*
X116143506Y-102124463D01*
X116046815Y-102203815D01*
X115967463Y-102300506D01*
X115908498Y-102410820D01*
X115872188Y-102530518D01*
X115859928Y-102655000D01*
X115859928Y-104355000D01*
X115872188Y-104479482D01*
X115908498Y-104599180D01*
X115967463Y-104709494D01*
X116046815Y-104806185D01*
X116143506Y-104885537D01*
X116253820Y-104944502D01*
X116373518Y-104980812D01*
X116498000Y-104993072D01*
X118198000Y-104993072D01*
X118322482Y-104980812D01*
X118442180Y-104944502D01*
X118552494Y-104885537D01*
X118649185Y-104806185D01*
X118728537Y-104709494D01*
X118787502Y-104599180D01*
X118809513Y-104526620D01*
X118941368Y-104658475D01*
X119184589Y-104820990D01*
X119454842Y-104932932D01*
X119741740Y-104990000D01*
X120034260Y-104990000D01*
X120321158Y-104932932D01*
X120591411Y-104820990D01*
X120834632Y-104658475D01*
X121041475Y-104451632D01*
X121158000Y-104277240D01*
X121274525Y-104451632D01*
X121481368Y-104658475D01*
X121724589Y-104820990D01*
X121994842Y-104932932D01*
X122281740Y-104990000D01*
X122574260Y-104990000D01*
X122861158Y-104932932D01*
X123131411Y-104820990D01*
X123374632Y-104658475D01*
X123581475Y-104451632D01*
X123703195Y-104269466D01*
X123772822Y-104386355D01*
X123967731Y-104602588D01*
X124201080Y-104776641D01*
X124463901Y-104901825D01*
X124611110Y-104946476D01*
X124841000Y-104825155D01*
X124841000Y-103632000D01*
X124821000Y-103632000D01*
X124821000Y-103378000D01*
X124841000Y-103378000D01*
X124841000Y-102184845D01*
X124611110Y-102063524D01*
X124463901Y-102108175D01*
X124201080Y-102233359D01*
X123967731Y-102407412D01*
X123772822Y-102623645D01*
X123703195Y-102740534D01*
X123581475Y-102558368D01*
X123563000Y-102539893D01*
X123563000Y-101710752D01*
X123568491Y-101655000D01*
X123559194Y-101560600D01*
X123879488Y-101560600D01*
X123934447Y-101549668D01*
X123990199Y-101544177D01*
X124043806Y-101527915D01*
X124098767Y-101516983D01*
X124150542Y-101495537D01*
X124204147Y-101479276D01*
X124253551Y-101452869D01*
X124305324Y-101431424D01*
X124351914Y-101400293D01*
X124401323Y-101373884D01*
X124444632Y-101338341D01*
X124491220Y-101307212D01*
X124530841Y-101267591D01*
X124574149Y-101232049D01*
X124609691Y-101188741D01*
X124649312Y-101149120D01*
X124680441Y-101102532D01*
X124715984Y-101059223D01*
X124742393Y-101009814D01*
X124773524Y-100963224D01*
X124794969Y-100911451D01*
X124821376Y-100862047D01*
X124837637Y-100808442D01*
X124859083Y-100756667D01*
X124870015Y-100701706D01*
X124886277Y-100648099D01*
X124891768Y-100592347D01*
X124902700Y-100537388D01*
X124902700Y-100481352D01*
X124908191Y-100425600D01*
X124902700Y-100369848D01*
X124902700Y-100313812D01*
X124891768Y-100258853D01*
X124886277Y-100203101D01*
X124870015Y-100149494D01*
X124859083Y-100094533D01*
X124837637Y-100042758D01*
X124821376Y-99989153D01*
X124794969Y-99939749D01*
X124773524Y-99887976D01*
X124742393Y-99841386D01*
X124726125Y-99810950D01*
X124742393Y-99780514D01*
X124773524Y-99733924D01*
X124794969Y-99682151D01*
X124821376Y-99632747D01*
X124837637Y-99579142D01*
X124859083Y-99527367D01*
X124870015Y-99472406D01*
X124886277Y-99418799D01*
X124891768Y-99363047D01*
X124902700Y-99308088D01*
X124902700Y-99252052D01*
X124908191Y-99196300D01*
X124902700Y-99140548D01*
X124902700Y-99084512D01*
X124891768Y-99029553D01*
X124886277Y-98973801D01*
X124870015Y-98920194D01*
X124859083Y-98865233D01*
X124837637Y-98813458D01*
X124821376Y-98759853D01*
X124794969Y-98710449D01*
X124773524Y-98658676D01*
X124742393Y-98612086D01*
X124715984Y-98562677D01*
X124680441Y-98519368D01*
X124649312Y-98472780D01*
X124609691Y-98433159D01*
X124574149Y-98389851D01*
X124530841Y-98354309D01*
X124491220Y-98314688D01*
X124444632Y-98283559D01*
X124401323Y-98248016D01*
X124351914Y-98221607D01*
X124305324Y-98190476D01*
X124253551Y-98169031D01*
X124204147Y-98142624D01*
X124150542Y-98126363D01*
X124098767Y-98104917D01*
X124043806Y-98093985D01*
X123990199Y-98077723D01*
X123934447Y-98072232D01*
X123879488Y-98061300D01*
X123669432Y-98061300D01*
X122903518Y-97295386D01*
X123131411Y-97200990D01*
X123374632Y-97038475D01*
X123581475Y-96831632D01*
X123703195Y-96649466D01*
X123772822Y-96766355D01*
X123967731Y-96982588D01*
X124201080Y-97156641D01*
X124463901Y-97281825D01*
X124611110Y-97326476D01*
X124841000Y-97205155D01*
X124841000Y-96012000D01*
X124821000Y-96012000D01*
X124821000Y-95758000D01*
X124841000Y-95758000D01*
X124841000Y-94564845D01*
X124611110Y-94443524D01*
X124463901Y-94488175D01*
X124201080Y-94613359D01*
X123967731Y-94787412D01*
X123772822Y-95003645D01*
X123703195Y-95120534D01*
X123581475Y-94938368D01*
X123374632Y-94731525D01*
X123131411Y-94569010D01*
X122861158Y-94457068D01*
X122574260Y-94400000D01*
X122281740Y-94400000D01*
X121994842Y-94457068D01*
X121724589Y-94569010D01*
X121481368Y-94731525D01*
X121274525Y-94938368D01*
X121158000Y-95112760D01*
X121041475Y-94938368D01*
X120834632Y-94731525D01*
X120591411Y-94569010D01*
X120321158Y-94457068D01*
X120034260Y-94400000D01*
X119741740Y-94400000D01*
X119454842Y-94457068D01*
X119184589Y-94569010D01*
X118941368Y-94731525D01*
X118809513Y-94863380D01*
X118787502Y-94790820D01*
X118728537Y-94680506D01*
X118649185Y-94583815D01*
X118552494Y-94504463D01*
X118442180Y-94445498D01*
X118322482Y-94409188D01*
X118198000Y-94396928D01*
X117211203Y-94396928D01*
X123191141Y-88416991D01*
X123234449Y-88381449D01*
X123376284Y-88208623D01*
X123481676Y-88011447D01*
X123546577Y-87797499D01*
X123563000Y-87630752D01*
X123568491Y-87575001D01*
X123563000Y-87519249D01*
X123563000Y-86690107D01*
X123581475Y-86671632D01*
X123703195Y-86489466D01*
X123772822Y-86606355D01*
X123967731Y-86822588D01*
X124201080Y-86996641D01*
X124463901Y-87121825D01*
X124611110Y-87166476D01*
X124841000Y-87045155D01*
X124841000Y-85852000D01*
X124821000Y-85852000D01*
X124821000Y-85598000D01*
X124841000Y-85598000D01*
X124841000Y-84404845D01*
X124611110Y-84283524D01*
X124463901Y-84328175D01*
X124201080Y-84453359D01*
X123967731Y-84627412D01*
X123772822Y-84843645D01*
X123703195Y-84960534D01*
X123581475Y-84778368D01*
X123374632Y-84571525D01*
X123131411Y-84409010D01*
X122861158Y-84297068D01*
X122574260Y-84240000D01*
X122281740Y-84240000D01*
X121994842Y-84297068D01*
X121724589Y-84409010D01*
X121481368Y-84571525D01*
X121274525Y-84778368D01*
X121158000Y-84952760D01*
X121041475Y-84778368D01*
X120834632Y-84571525D01*
X120591411Y-84409010D01*
X120321158Y-84297068D01*
X120034260Y-84240000D01*
X119741740Y-84240000D01*
X119454842Y-84297068D01*
X119184589Y-84409010D01*
X118941368Y-84571525D01*
X118809513Y-84703380D01*
X118787502Y-84630820D01*
X118728537Y-84520506D01*
X118649185Y-84423815D01*
X118552494Y-84344463D01*
X118442180Y-84285498D01*
X118322482Y-84249188D01*
X118198000Y-84236928D01*
X116498000Y-84236928D01*
X116373518Y-84249188D01*
X116253820Y-84285498D01*
X116143506Y-84344463D01*
X116046815Y-84423815D01*
X115967463Y-84520506D01*
X115908498Y-84630820D01*
X115872188Y-84750518D01*
X115859928Y-84875000D01*
X115859928Y-86575000D01*
X115872188Y-86699482D01*
X115908498Y-86819180D01*
X115967463Y-86929494D01*
X116046815Y-87026185D01*
X116143506Y-87105537D01*
X116253820Y-87164502D01*
X116373518Y-87200812D01*
X116498000Y-87213072D01*
X118198000Y-87213072D01*
X118322482Y-87200812D01*
X118442180Y-87164502D01*
X118552494Y-87105537D01*
X118649185Y-87026185D01*
X118728537Y-86929494D01*
X118753001Y-86883727D01*
X118753001Y-87104867D01*
X113775165Y-92082704D01*
X113731851Y-92118251D01*
X113590016Y-92291077D01*
X113489169Y-92479751D01*
X113484624Y-92488254D01*
X113419723Y-92702202D01*
X113397809Y-92924700D01*
X113403300Y-92980451D01*
X113403301Y-113495938D01*
X113397809Y-113551700D01*
X113419723Y-113774198D01*
X113484624Y-113988146D01*
X113484625Y-113988147D01*
X113590017Y-114185323D01*
X113731852Y-114358149D01*
X113775160Y-114393691D01*
X125036468Y-125655000D01*
X115479707Y-125655000D01*
X115609594Y-125525113D01*
X115901464Y-125088298D01*
X116102508Y-124602935D01*
X116205000Y-124087677D01*
X116205000Y-123562323D01*
X116102508Y-123047065D01*
X115901464Y-122561702D01*
X115609594Y-122124887D01*
X115238113Y-121753406D01*
X114801298Y-121461536D01*
X114315935Y-121260492D01*
X113800677Y-121158000D01*
X113275323Y-121158000D01*
X112760065Y-121260492D01*
X112274702Y-121461536D01*
X111837887Y-121753406D01*
X111708000Y-121883293D01*
X111708000Y-73735000D01*
X112866293Y-73735000D01*
X112736406Y-73864887D01*
G37*
%TD.AperFunction*%
D20*
X164898001Y-74843093D02*
X164898001Y-79339811D01*
X164863291Y-79305101D01*
X164747925Y-79420467D01*
X164637079Y-79143286D01*
X164326160Y-78989911D01*
X163991295Y-78900140D01*
X163645350Y-78877424D01*
X163301620Y-78922634D01*
X162973315Y-79034034D01*
X162768921Y-79143286D01*
X162658074Y-79420469D01*
X163703000Y-80465395D01*
X163717143Y-80451253D01*
X163896748Y-80630858D01*
X163882605Y-80645000D01*
X163896748Y-80659143D01*
X163717143Y-80838748D01*
X163703000Y-80824605D01*
X162658074Y-81869531D01*
X162768921Y-82146714D01*
X163079840Y-82300089D01*
X163414705Y-82389860D01*
X163760650Y-82412576D01*
X164104380Y-82367366D01*
X164432685Y-82255966D01*
X164637079Y-82146714D01*
X164747925Y-81869533D01*
X164863291Y-81984899D01*
X164898000Y-81950190D01*
X164898000Y-84419810D01*
X164863291Y-84385101D01*
X164747925Y-84500467D01*
X164637079Y-84223286D01*
X164326160Y-84069911D01*
X163991295Y-83980140D01*
X163645350Y-83957424D01*
X163301620Y-84002634D01*
X162973315Y-84114034D01*
X162768921Y-84223286D01*
X162658074Y-84500469D01*
X163703000Y-85545395D01*
X163717143Y-85531253D01*
X163896748Y-85710858D01*
X163882605Y-85725000D01*
X164927531Y-86769926D01*
X165204714Y-86659079D01*
X165230901Y-86605992D01*
X167438001Y-88813093D01*
X167438001Y-88863294D01*
X167308113Y-88733406D01*
X166871298Y-88441536D01*
X166385935Y-88240492D01*
X165870677Y-88138000D01*
X165345323Y-88138000D01*
X164830065Y-88240492D01*
X164344702Y-88441536D01*
X163907887Y-88733406D01*
X163536406Y-89104887D01*
X163244536Y-89541702D01*
X163043492Y-90027065D01*
X162941000Y-90542323D01*
X162941000Y-91067677D01*
X163043492Y-91582935D01*
X163244536Y-92068298D01*
X163536406Y-92505113D01*
X163907887Y-92876594D01*
X164344702Y-93168464D01*
X164830065Y-93369508D01*
X165345323Y-93472000D01*
X165870677Y-93472000D01*
X166385935Y-93369508D01*
X166871298Y-93168464D01*
X167308113Y-92876594D01*
X167438001Y-92746706D01*
X167438000Y-116803293D01*
X167308113Y-116673406D01*
X166871298Y-116381536D01*
X166385935Y-116180492D01*
X165870677Y-116078000D01*
X165345323Y-116078000D01*
X164830065Y-116180492D01*
X164344702Y-116381536D01*
X163907887Y-116673406D01*
X163536406Y-117044887D01*
X163244536Y-117481702D01*
X163043492Y-117967065D01*
X162941000Y-118482323D01*
X162941000Y-119007677D01*
X163043492Y-119522935D01*
X163244536Y-120008298D01*
X163536406Y-120445113D01*
X163907887Y-120816594D01*
X164344702Y-121108464D01*
X164830065Y-121309508D01*
X165345323Y-121412000D01*
X165870677Y-121412000D01*
X166385935Y-121309508D01*
X166871298Y-121108464D01*
X167308113Y-120816594D01*
X167438000Y-120686707D01*
X167438000Y-120990908D01*
X165130617Y-123298292D01*
X165103526Y-123320525D01*
X165081293Y-123347616D01*
X165014801Y-123428637D01*
X164948872Y-123551981D01*
X164908274Y-123685816D01*
X164894565Y-123825000D01*
X164898001Y-123859885D01*
X164898000Y-125655000D01*
X147455831Y-125655000D01*
X148886473Y-124224358D01*
X148891084Y-124271177D01*
X148976775Y-124553664D01*
X149115931Y-124814006D01*
X149303203Y-125042197D01*
X149531395Y-125229469D01*
X149791737Y-125368625D01*
X150074224Y-125454316D01*
X150368000Y-125483251D01*
X150661777Y-125454316D01*
X150944264Y-125368625D01*
X151204606Y-125229469D01*
X151432797Y-125042197D01*
X151620069Y-124814006D01*
X151638000Y-124780459D01*
X151655931Y-124814006D01*
X151843203Y-125042197D01*
X152071395Y-125229469D01*
X152331737Y-125368625D01*
X152614224Y-125454316D01*
X152908000Y-125483251D01*
X153201777Y-125454316D01*
X153484264Y-125368625D01*
X153744606Y-125229469D01*
X153972797Y-125042197D01*
X154160069Y-124814006D01*
X154178000Y-124780459D01*
X154195931Y-124814006D01*
X154383203Y-125042197D01*
X154611395Y-125229469D01*
X154871737Y-125368625D01*
X155154224Y-125454316D01*
X155448000Y-125483251D01*
X155741777Y-125454316D01*
X156024264Y-125368625D01*
X156284606Y-125229469D01*
X156512797Y-125042197D01*
X156700069Y-124814006D01*
X156718000Y-124780459D01*
X156735931Y-124814006D01*
X156923203Y-125042197D01*
X157151395Y-125229469D01*
X157411737Y-125368625D01*
X157694224Y-125454316D01*
X157988000Y-125483251D01*
X158281777Y-125454316D01*
X158564264Y-125368625D01*
X158824606Y-125229469D01*
X159052797Y-125042197D01*
X159240069Y-124814006D01*
X159258000Y-124780459D01*
X159275931Y-124814006D01*
X159463203Y-125042197D01*
X159691395Y-125229469D01*
X159951737Y-125368625D01*
X160234224Y-125454316D01*
X160528000Y-125483251D01*
X160821777Y-125454316D01*
X161104264Y-125368625D01*
X161364606Y-125229469D01*
X161592797Y-125042197D01*
X161780069Y-124814006D01*
X161798000Y-124780459D01*
X161815931Y-124814006D01*
X162003203Y-125042197D01*
X162231395Y-125229469D01*
X162491737Y-125368625D01*
X162774224Y-125454316D01*
X163068000Y-125483251D01*
X163361777Y-125454316D01*
X163644264Y-125368625D01*
X163904606Y-125229469D01*
X164132797Y-125042197D01*
X164320069Y-124814006D01*
X164459225Y-124553663D01*
X164544916Y-124271176D01*
X164566600Y-124051018D01*
X164566600Y-123598981D01*
X164544916Y-123378823D01*
X164459225Y-123096336D01*
X164320069Y-122835994D01*
X164132797Y-122607803D01*
X163904605Y-122420531D01*
X163644263Y-122281375D01*
X163361776Y-122195684D01*
X163068000Y-122166749D01*
X162774223Y-122195684D01*
X162491736Y-122281375D01*
X162231394Y-122420531D01*
X162003203Y-122607803D01*
X161815931Y-122835995D01*
X161798000Y-122869541D01*
X161780069Y-122835994D01*
X161592797Y-122607803D01*
X161364605Y-122420531D01*
X161104263Y-122281375D01*
X160821776Y-122195684D01*
X160528000Y-122166749D01*
X160234223Y-122195684D01*
X159951736Y-122281375D01*
X159691394Y-122420531D01*
X159463203Y-122607803D01*
X159275931Y-122835995D01*
X159258000Y-122869541D01*
X159240069Y-122835994D01*
X159052797Y-122607803D01*
X158824605Y-122420531D01*
X158564263Y-122281375D01*
X158281776Y-122195684D01*
X157988000Y-122166749D01*
X157694223Y-122195684D01*
X157411736Y-122281375D01*
X157151394Y-122420531D01*
X156923203Y-122607803D01*
X156735931Y-122835995D01*
X156718000Y-122869541D01*
X156700069Y-122835994D01*
X156512797Y-122607803D01*
X156284605Y-122420531D01*
X156024263Y-122281375D01*
X155741776Y-122195684D01*
X155448000Y-122166749D01*
X155154223Y-122195684D01*
X154871736Y-122281375D01*
X154611394Y-122420531D01*
X154383203Y-122607803D01*
X154195931Y-122835995D01*
X154178000Y-122869541D01*
X154160069Y-122835994D01*
X153972797Y-122607803D01*
X153744605Y-122420531D01*
X153484263Y-122281375D01*
X153201776Y-122195684D01*
X152908000Y-122166749D01*
X152614223Y-122195684D01*
X152331736Y-122281375D01*
X152071394Y-122420531D01*
X151843203Y-122607803D01*
X151655931Y-122835995D01*
X151638000Y-122869541D01*
X151620069Y-122835994D01*
X151432797Y-122607803D01*
X151204605Y-122420531D01*
X150944263Y-122281375D01*
X150856177Y-122254654D01*
X162088288Y-111022544D01*
X162127912Y-110982920D01*
X162159045Y-110936326D01*
X162194583Y-110893023D01*
X162220988Y-110843622D01*
X162252124Y-110797024D01*
X162273572Y-110745243D01*
X162299975Y-110695847D01*
X162316235Y-110642248D01*
X162337683Y-110590467D01*
X162348615Y-110535506D01*
X162364877Y-110481900D01*
X162370368Y-110426146D01*
X162381300Y-110371188D01*
X162381300Y-110315153D01*
X162386791Y-110259401D01*
X162381300Y-110203649D01*
X162381300Y-110147612D01*
X162370368Y-110092652D01*
X162364877Y-110036902D01*
X162348616Y-109983299D01*
X162337683Y-109928333D01*
X162316233Y-109876549D01*
X162299975Y-109822954D01*
X162273574Y-109773561D01*
X162252124Y-109721776D01*
X162220986Y-109675174D01*
X162194583Y-109625778D01*
X162159049Y-109582480D01*
X162127912Y-109535880D01*
X162088281Y-109496249D01*
X162052748Y-109452952D01*
X162009451Y-109417419D01*
X161969820Y-109377788D01*
X161923220Y-109346651D01*
X161879922Y-109311117D01*
X161830526Y-109284714D01*
X161783924Y-109253576D01*
X161732139Y-109232126D01*
X161682746Y-109205725D01*
X161629151Y-109189467D01*
X161577367Y-109168017D01*
X161522401Y-109157084D01*
X161468798Y-109140823D01*
X161413048Y-109135332D01*
X161358088Y-109124400D01*
X161302051Y-109124400D01*
X161246299Y-109118909D01*
X161190547Y-109124400D01*
X161134512Y-109124400D01*
X161079554Y-109135332D01*
X161023800Y-109140823D01*
X160970194Y-109157085D01*
X160915233Y-109168017D01*
X160863452Y-109189465D01*
X160809853Y-109205725D01*
X160760457Y-109232128D01*
X160708676Y-109253576D01*
X160662078Y-109284712D01*
X160612677Y-109311117D01*
X160569374Y-109346655D01*
X160522780Y-109377788D01*
X160483156Y-109417412D01*
X146708320Y-123192249D01*
X146679225Y-123096336D01*
X146540069Y-122835994D01*
X146352797Y-122607803D01*
X146124605Y-122420531D01*
X145864263Y-122281375D01*
X145581776Y-122195684D01*
X145288000Y-122166749D01*
X144994223Y-122195684D01*
X144711736Y-122281375D01*
X144451394Y-122420531D01*
X144223203Y-122607803D01*
X144035931Y-122835995D01*
X144014576Y-122875947D01*
X143866486Y-122673271D01*
X143650035Y-122474267D01*
X143398919Y-122321314D01*
X143122789Y-122220291D01*
X143107026Y-122217642D01*
X142875000Y-122338783D01*
X142875000Y-123698000D01*
X142895000Y-123698000D01*
X142895000Y-123952000D01*
X142875000Y-123952000D01*
X142875000Y-123972000D01*
X142621000Y-123972000D01*
X142621000Y-123952000D01*
X140335000Y-123952000D01*
X140335000Y-123972000D01*
X140081000Y-123972000D01*
X140081000Y-123952000D01*
X140061000Y-123952000D01*
X140061000Y-123698000D01*
X140081000Y-123698000D01*
X140081000Y-122338783D01*
X140335000Y-122338783D01*
X140335000Y-123698000D01*
X142621000Y-123698000D01*
X142621000Y-122338783D01*
X142388974Y-122217642D01*
X142373211Y-122220291D01*
X142097081Y-122321314D01*
X141845965Y-122474267D01*
X141629514Y-122673271D01*
X141478000Y-122880633D01*
X141326486Y-122673271D01*
X141110035Y-122474267D01*
X140858919Y-122321314D01*
X140582789Y-122220291D01*
X140567026Y-122217642D01*
X140335000Y-122338783D01*
X140081000Y-122338783D01*
X139848974Y-122217642D01*
X139833211Y-122220291D01*
X139557081Y-122321314D01*
X139305965Y-122474267D01*
X139089514Y-122673271D01*
X138941424Y-122875947D01*
X138920069Y-122835994D01*
X138732797Y-122607803D01*
X138504605Y-122420531D01*
X138244263Y-122281375D01*
X137961776Y-122195684D01*
X137668000Y-122166749D01*
X137374223Y-122195684D01*
X137091736Y-122281375D01*
X136831394Y-122420531D01*
X136603203Y-122607803D01*
X136415931Y-122835995D01*
X136398000Y-122869541D01*
X136380069Y-122835994D01*
X136192797Y-122607803D01*
X135964605Y-122420531D01*
X135704263Y-122281375D01*
X135421776Y-122195684D01*
X135128000Y-122166749D01*
X135079643Y-122171512D01*
X134016196Y-121108065D01*
X133980649Y-121064751D01*
X133807823Y-120922916D01*
X133610647Y-120817524D01*
X133396699Y-120752623D01*
X133229952Y-120736200D01*
X133229951Y-120736200D01*
X133174200Y-120730709D01*
X133118449Y-120736200D01*
X131451736Y-120736200D01*
X125678920Y-114963314D01*
X125734920Y-114936641D01*
X125968269Y-114762588D01*
X126163178Y-114546355D01*
X126232805Y-114429466D01*
X126354525Y-114611632D01*
X126561368Y-114818475D01*
X126804589Y-114980990D01*
X127074842Y-115092932D01*
X127361740Y-115150000D01*
X127654260Y-115150000D01*
X127941158Y-115092932D01*
X128211411Y-114980990D01*
X128454632Y-114818475D01*
X128661475Y-114611632D01*
X128778000Y-114437240D01*
X128894525Y-114611632D01*
X129101368Y-114818475D01*
X129344589Y-114980990D01*
X129614842Y-115092932D01*
X129901740Y-115150000D01*
X130194260Y-115150000D01*
X130481158Y-115092932D01*
X130751411Y-114980990D01*
X130994632Y-114818475D01*
X131201475Y-114611632D01*
X131363990Y-114368411D01*
X131475932Y-114098158D01*
X131533000Y-113811260D01*
X131533000Y-113518740D01*
X131479484Y-113249700D01*
X150091549Y-113249700D01*
X150147300Y-113255191D01*
X150203051Y-113249700D01*
X150203052Y-113249700D01*
X150369799Y-113233277D01*
X150583747Y-113168376D01*
X150780923Y-113062984D01*
X150953749Y-112921149D01*
X150989296Y-112877835D01*
X156365441Y-107501691D01*
X156408749Y-107466149D01*
X156550584Y-107293323D01*
X156655976Y-107096147D01*
X156720877Y-106882199D01*
X156737300Y-106715452D01*
X156742791Y-106659700D01*
X156737300Y-106603949D01*
X156737300Y-101895041D01*
X156742790Y-101839299D01*
X156737300Y-101783557D01*
X156737300Y-101783548D01*
X156720877Y-101616801D01*
X156655976Y-101402853D01*
X156550584Y-101205677D01*
X156408749Y-101032851D01*
X156365441Y-100997309D01*
X150403132Y-95035000D01*
X161706928Y-95035000D01*
X161706928Y-96735000D01*
X161719188Y-96859482D01*
X161755498Y-96979180D01*
X161814463Y-97089494D01*
X161893815Y-97186185D01*
X161990506Y-97265537D01*
X162100820Y-97324502D01*
X162173380Y-97346513D01*
X162041525Y-97478368D01*
X161879010Y-97721589D01*
X161767068Y-97991842D01*
X161710000Y-98278740D01*
X161710000Y-98571260D01*
X161767068Y-98858158D01*
X161879010Y-99128411D01*
X162041525Y-99371632D01*
X162248368Y-99578475D01*
X162422760Y-99695000D01*
X162248368Y-99811525D01*
X162041525Y-100018368D01*
X161879010Y-100261589D01*
X161767068Y-100531842D01*
X161710000Y-100818740D01*
X161710000Y-101111260D01*
X161767068Y-101398158D01*
X161879010Y-101668411D01*
X162041525Y-101911632D01*
X162248368Y-102118475D01*
X162491589Y-102280990D01*
X162761842Y-102392932D01*
X163048740Y-102450000D01*
X163341260Y-102450000D01*
X163628158Y-102392932D01*
X163898411Y-102280990D01*
X164141632Y-102118475D01*
X164348475Y-101911632D01*
X164465000Y-101737240D01*
X164581525Y-101911632D01*
X164788368Y-102118475D01*
X165031589Y-102280990D01*
X165301842Y-102392932D01*
X165588740Y-102450000D01*
X165881260Y-102450000D01*
X166168158Y-102392932D01*
X166438411Y-102280990D01*
X166681632Y-102118475D01*
X166888475Y-101911632D01*
X167050990Y-101668411D01*
X167162932Y-101398158D01*
X167220000Y-101111260D01*
X167220000Y-100818740D01*
X167162932Y-100531842D01*
X167050990Y-100261589D01*
X166888475Y-100018368D01*
X166681632Y-99811525D01*
X166507240Y-99695000D01*
X166681632Y-99578475D01*
X166888475Y-99371632D01*
X167050990Y-99128411D01*
X167162932Y-98858158D01*
X167220000Y-98571260D01*
X167220000Y-98278740D01*
X167162932Y-97991842D01*
X167050990Y-97721589D01*
X166888475Y-97478368D01*
X166681632Y-97271525D01*
X166507240Y-97155000D01*
X166681632Y-97038475D01*
X166888475Y-96831632D01*
X167050990Y-96588411D01*
X167162932Y-96318158D01*
X167220000Y-96031260D01*
X167220000Y-95738740D01*
X167162932Y-95451842D01*
X167050990Y-95181589D01*
X166888475Y-94938368D01*
X166681632Y-94731525D01*
X166438411Y-94569010D01*
X166168158Y-94457068D01*
X165881260Y-94400000D01*
X165588740Y-94400000D01*
X165301842Y-94457068D01*
X165031589Y-94569010D01*
X164788368Y-94731525D01*
X164656513Y-94863380D01*
X164634502Y-94790820D01*
X164575537Y-94680506D01*
X164496185Y-94583815D01*
X164399494Y-94504463D01*
X164289180Y-94445498D01*
X164169482Y-94409188D01*
X164045000Y-94396928D01*
X162345000Y-94396928D01*
X162220518Y-94409188D01*
X162100820Y-94445498D01*
X161990506Y-94504463D01*
X161893815Y-94583815D01*
X161814463Y-94680506D01*
X161755498Y-94790820D01*
X161719188Y-94910518D01*
X161706928Y-95035000D01*
X150403132Y-95035000D01*
X148915751Y-93547620D01*
X149043077Y-93462544D01*
X149208000Y-93297621D01*
X149372923Y-93462544D01*
X149587482Y-93605907D01*
X149825887Y-93704658D01*
X150078976Y-93755000D01*
X150337024Y-93755000D01*
X150590113Y-93704658D01*
X150828518Y-93605907D01*
X151043077Y-93462544D01*
X151157221Y-93348400D01*
X151484205Y-93348400D01*
X151540630Y-93579621D01*
X151774808Y-93688017D01*
X152025633Y-93748645D01*
X152283465Y-93759174D01*
X152538398Y-93719200D01*
X152780633Y-93630259D01*
X152875370Y-93579621D01*
X152931795Y-93348400D01*
X152208000Y-92624605D01*
X151484205Y-93348400D01*
X151157221Y-93348400D01*
X151225544Y-93280077D01*
X151300559Y-93167809D01*
X151304600Y-93168795D01*
X152028395Y-92445000D01*
X151304600Y-91721205D01*
X151300559Y-91722191D01*
X151225544Y-91609923D01*
X151043077Y-91427456D01*
X150828518Y-91284093D01*
X150590113Y-91185342D01*
X150337024Y-91135000D01*
X150078976Y-91135000D01*
X149825887Y-91185342D01*
X149587482Y-91284093D01*
X149372923Y-91427456D01*
X149208000Y-91592379D01*
X149043077Y-91427456D01*
X148828518Y-91284093D01*
X148590113Y-91185342D01*
X148337024Y-91135000D01*
X148078976Y-91135000D01*
X147825887Y-91185342D01*
X147587482Y-91284093D01*
X147372923Y-91427456D01*
X147208000Y-91592379D01*
X147043077Y-91427456D01*
X146828518Y-91284093D01*
X146590113Y-91185342D01*
X146337024Y-91135000D01*
X146078976Y-91135000D01*
X145825887Y-91185342D01*
X145587482Y-91284093D01*
X145372923Y-91427456D01*
X145208000Y-91592379D01*
X145043077Y-91427456D01*
X144828518Y-91284093D01*
X144590113Y-91185342D01*
X144337024Y-91135000D01*
X144078976Y-91135000D01*
X143825887Y-91185342D01*
X143587482Y-91284093D01*
X143372923Y-91427456D01*
X143208000Y-91592379D01*
X143043077Y-91427456D01*
X142828518Y-91284093D01*
X142590113Y-91185342D01*
X142337024Y-91135000D01*
X142078976Y-91135000D01*
X141825887Y-91185342D01*
X141587482Y-91284093D01*
X141372923Y-91427456D01*
X141208000Y-91592379D01*
X141043077Y-91427456D01*
X140828518Y-91284093D01*
X140590113Y-91185342D01*
X140337024Y-91135000D01*
X140078976Y-91135000D01*
X139825887Y-91185342D01*
X139587482Y-91284093D01*
X139372923Y-91427456D01*
X139190456Y-91609923D01*
X139047093Y-91824482D01*
X138948342Y-92062887D01*
X138898000Y-92315976D01*
X138898000Y-92574024D01*
X138948342Y-92827113D01*
X139047093Y-93065518D01*
X139190456Y-93280077D01*
X139372923Y-93462544D01*
X139587482Y-93605907D01*
X139825887Y-93704658D01*
X140078976Y-93755000D01*
X140337024Y-93755000D01*
X140590113Y-93704658D01*
X140828518Y-93605907D01*
X141043077Y-93462544D01*
X141208000Y-93297621D01*
X141372923Y-93462544D01*
X141587482Y-93605907D01*
X141825887Y-93704658D01*
X142078976Y-93755000D01*
X142337024Y-93755000D01*
X142590113Y-93704658D01*
X142828518Y-93605907D01*
X143043077Y-93462544D01*
X143208000Y-93297621D01*
X143372923Y-93462544D01*
X143587482Y-93605907D01*
X143825887Y-93704658D01*
X144078976Y-93755000D01*
X144337024Y-93755000D01*
X144590113Y-93704658D01*
X144828518Y-93605907D01*
X145043077Y-93462544D01*
X145208000Y-93297621D01*
X145372923Y-93462544D01*
X145587482Y-93605907D01*
X145825887Y-93704658D01*
X145871625Y-93713756D01*
X154467300Y-102309432D01*
X154467301Y-104759951D01*
X154390367Y-104741355D01*
X154132535Y-104730826D01*
X153877602Y-104770800D01*
X153635367Y-104859741D01*
X153540630Y-104910379D01*
X153484205Y-105141600D01*
X154208000Y-105865395D01*
X154222143Y-105851253D01*
X154401748Y-106030858D01*
X154387605Y-106045000D01*
X154401748Y-106059143D01*
X154222143Y-106238748D01*
X154208000Y-106224605D01*
X153484205Y-106948400D01*
X153528197Y-107128671D01*
X149677169Y-110979700D01*
X140878431Y-110979700D01*
X144544378Y-107313755D01*
X144590113Y-107304658D01*
X144828518Y-107205907D01*
X145043077Y-107062544D01*
X145208000Y-106897621D01*
X145372923Y-107062544D01*
X145587482Y-107205907D01*
X145825887Y-107304658D01*
X146078976Y-107355000D01*
X146337024Y-107355000D01*
X146590113Y-107304658D01*
X146828518Y-107205907D01*
X147043077Y-107062544D01*
X147208000Y-106897621D01*
X147372923Y-107062544D01*
X147587482Y-107205907D01*
X147825887Y-107304658D01*
X148078976Y-107355000D01*
X148337024Y-107355000D01*
X148590113Y-107304658D01*
X148828518Y-107205907D01*
X149043077Y-107062544D01*
X149208000Y-106897621D01*
X149372923Y-107062544D01*
X149587482Y-107205907D01*
X149825887Y-107304658D01*
X150078976Y-107355000D01*
X150337024Y-107355000D01*
X150590113Y-107304658D01*
X150828518Y-107205907D01*
X151043077Y-107062544D01*
X151208000Y-106897621D01*
X151372923Y-107062544D01*
X151587482Y-107205907D01*
X151825887Y-107304658D01*
X152078976Y-107355000D01*
X152337024Y-107355000D01*
X152590113Y-107304658D01*
X152828518Y-107205907D01*
X153043077Y-107062544D01*
X153225544Y-106880077D01*
X153300559Y-106767809D01*
X153304600Y-106768795D01*
X154028395Y-106045000D01*
X153304600Y-105321205D01*
X153300559Y-105322191D01*
X153225544Y-105209923D01*
X153043077Y-105027456D01*
X152828518Y-104884093D01*
X152590113Y-104785342D01*
X152337024Y-104735000D01*
X152078976Y-104735000D01*
X151825887Y-104785342D01*
X151587482Y-104884093D01*
X151372923Y-105027456D01*
X151208000Y-105192379D01*
X151043077Y-105027456D01*
X150828518Y-104884093D01*
X150590113Y-104785342D01*
X150544377Y-104776245D01*
X138131296Y-92363165D01*
X138095749Y-92319851D01*
X137922923Y-92178016D01*
X137725747Y-92072624D01*
X137511799Y-92007723D01*
X137345052Y-91991300D01*
X137345051Y-91991300D01*
X137289300Y-91985809D01*
X137233549Y-91991300D01*
X132439700Y-91991300D01*
X132439700Y-88048499D01*
X132581084Y-87876223D01*
X132686476Y-87679047D01*
X132751377Y-87465099D01*
X132767800Y-87298352D01*
X132767800Y-87298343D01*
X132773290Y-87242601D01*
X132767800Y-87186859D01*
X132767800Y-86276212D01*
X132781733Y-86281983D01*
X132836694Y-86292915D01*
X132890301Y-86309177D01*
X132946053Y-86314668D01*
X133001012Y-86325600D01*
X140686649Y-86325600D01*
X140742400Y-86331091D01*
X140798151Y-86325600D01*
X140798152Y-86325600D01*
X140964899Y-86309177D01*
X141178847Y-86244276D01*
X141376023Y-86138884D01*
X141548849Y-85997049D01*
X141584396Y-85953735D01*
X145203131Y-82335000D01*
X147609928Y-82335000D01*
X147609928Y-84035000D01*
X147622188Y-84159482D01*
X147658498Y-84279180D01*
X147717463Y-84389494D01*
X147796815Y-84486185D01*
X147893506Y-84565537D01*
X148003820Y-84624502D01*
X148123518Y-84660812D01*
X148248000Y-84673072D01*
X149948000Y-84673072D01*
X150072482Y-84660812D01*
X150192180Y-84624502D01*
X150302494Y-84565537D01*
X150399185Y-84486185D01*
X150478537Y-84389494D01*
X150515683Y-84320000D01*
X151923499Y-84320000D01*
X151977815Y-84386185D01*
X152074506Y-84465537D01*
X152184820Y-84524502D01*
X152304518Y-84560812D01*
X152429000Y-84573072D01*
X153094001Y-84573072D01*
X153094000Y-91470286D01*
X153048553Y-91424839D01*
X152931794Y-91541598D01*
X152875370Y-91310379D01*
X152641192Y-91201983D01*
X152390367Y-91141355D01*
X152132535Y-91130826D01*
X151877602Y-91170800D01*
X151635367Y-91259741D01*
X151540630Y-91310379D01*
X151484205Y-91541600D01*
X152208000Y-92265395D01*
X152222143Y-92251253D01*
X152401748Y-92430858D01*
X152387605Y-92445000D01*
X153111400Y-93168795D01*
X153115441Y-93167809D01*
X153190456Y-93280077D01*
X153372923Y-93462544D01*
X153587482Y-93605907D01*
X153825887Y-93704658D01*
X154078976Y-93755000D01*
X154337024Y-93755000D01*
X154590113Y-93704658D01*
X154828518Y-93605907D01*
X155043077Y-93462544D01*
X155225544Y-93280077D01*
X155368907Y-93065518D01*
X155467658Y-92827113D01*
X155518000Y-92574024D01*
X155518000Y-92315976D01*
X155467658Y-92062887D01*
X155368907Y-91824482D01*
X155364000Y-91817138D01*
X155364000Y-86949531D01*
X157578074Y-86949531D01*
X157688921Y-87226714D01*
X157999840Y-87380089D01*
X158334705Y-87469860D01*
X158680650Y-87492576D01*
X159024380Y-87447366D01*
X159352685Y-87335966D01*
X159557079Y-87226714D01*
X159667926Y-86949531D01*
X162658074Y-86949531D01*
X162768921Y-87226714D01*
X163079840Y-87380089D01*
X163414705Y-87469860D01*
X163760650Y-87492576D01*
X164104380Y-87447366D01*
X164432685Y-87335966D01*
X164637079Y-87226714D01*
X164747926Y-86949531D01*
X163703000Y-85904605D01*
X162658074Y-86949531D01*
X159667926Y-86949531D01*
X158623000Y-85904605D01*
X157578074Y-86949531D01*
X155364000Y-86949531D01*
X155364000Y-85782650D01*
X156855424Y-85782650D01*
X156900634Y-86126380D01*
X157012034Y-86454685D01*
X157121286Y-86659079D01*
X157398469Y-86769926D01*
X158443395Y-85725000D01*
X158802605Y-85725000D01*
X159847531Y-86769926D01*
X160124714Y-86659079D01*
X160278089Y-86348160D01*
X160367860Y-86013295D01*
X160383004Y-85782650D01*
X161935424Y-85782650D01*
X161980634Y-86126380D01*
X162092034Y-86454685D01*
X162201286Y-86659079D01*
X162478469Y-86769926D01*
X163523395Y-85725000D01*
X162478469Y-84680074D01*
X162201286Y-84790921D01*
X162047911Y-85101840D01*
X161958140Y-85436705D01*
X161935424Y-85782650D01*
X160383004Y-85782650D01*
X160390576Y-85667350D01*
X160345366Y-85323620D01*
X160233966Y-84995315D01*
X160124714Y-84790921D01*
X159847531Y-84680074D01*
X158802605Y-85725000D01*
X158443395Y-85725000D01*
X157398469Y-84680074D01*
X157121286Y-84790921D01*
X156967911Y-85101840D01*
X156878140Y-85436705D01*
X156855424Y-85782650D01*
X155364000Y-85782650D01*
X155364000Y-84573072D01*
X156029000Y-84573072D01*
X156153482Y-84560812D01*
X156273180Y-84524502D01*
X156383494Y-84465537D01*
X156480185Y-84386185D01*
X156534501Y-84320000D01*
X157650245Y-84320000D01*
X157578074Y-84500469D01*
X158623000Y-85545395D01*
X159667926Y-84500469D01*
X159595755Y-84320000D01*
X159808984Y-84320000D01*
X160041065Y-84552081D01*
X160329327Y-84744692D01*
X160649627Y-84877364D01*
X160989655Y-84945000D01*
X161336345Y-84945000D01*
X161676373Y-84877364D01*
X161996673Y-84744692D01*
X162284935Y-84552081D01*
X162530081Y-84306935D01*
X162722692Y-84018673D01*
X162855364Y-83698373D01*
X162923000Y-83358345D01*
X162923000Y-83011655D01*
X162855364Y-82671627D01*
X162722692Y-82351327D01*
X162530081Y-82063065D01*
X162284935Y-81817919D01*
X161996673Y-81625308D01*
X161676373Y-81492636D01*
X161336345Y-81425000D01*
X160989655Y-81425000D01*
X160649627Y-81492636D01*
X160329327Y-81625308D01*
X160041065Y-81817919D01*
X159808984Y-82050000D01*
X159595755Y-82050000D01*
X159667926Y-81869531D01*
X158623000Y-80824605D01*
X157578074Y-81869531D01*
X157650245Y-82050000D01*
X156534501Y-82050000D01*
X156480185Y-81983815D01*
X156383494Y-81904463D01*
X156273180Y-81845498D01*
X156153482Y-81809188D01*
X156029000Y-81796928D01*
X155029000Y-81796928D01*
X154904518Y-81809188D01*
X154879000Y-81816929D01*
X154853482Y-81809188D01*
X154729000Y-81796928D01*
X153729000Y-81796928D01*
X153604518Y-81809188D01*
X153579000Y-81816929D01*
X153553482Y-81809188D01*
X153429000Y-81796928D01*
X152429000Y-81796928D01*
X152304518Y-81809188D01*
X152184820Y-81845498D01*
X152074506Y-81904463D01*
X151977815Y-81983815D01*
X151923499Y-82050000D01*
X150515683Y-82050000D01*
X150478537Y-81980506D01*
X150399185Y-81883815D01*
X150302494Y-81804463D01*
X150192180Y-81745498D01*
X150072482Y-81709188D01*
X149948000Y-81696928D01*
X148248000Y-81696928D01*
X148123518Y-81709188D01*
X148003820Y-81745498D01*
X147893506Y-81804463D01*
X147796815Y-81883815D01*
X147717463Y-81980506D01*
X147658498Y-82090820D01*
X147622188Y-82210518D01*
X147609928Y-82335000D01*
X145203131Y-82335000D01*
X146835481Y-80702650D01*
X156855424Y-80702650D01*
X156900634Y-81046380D01*
X157012034Y-81374685D01*
X157121286Y-81579079D01*
X157398469Y-81689926D01*
X158443395Y-80645000D01*
X158802605Y-80645000D01*
X159847531Y-81689926D01*
X160124714Y-81579079D01*
X160278089Y-81268160D01*
X160367860Y-80933295D01*
X160383004Y-80702650D01*
X161935424Y-80702650D01*
X161980634Y-81046380D01*
X162092034Y-81374685D01*
X162201286Y-81579079D01*
X162478469Y-81689926D01*
X163523395Y-80645000D01*
X162478469Y-79600074D01*
X162201286Y-79710921D01*
X162047911Y-80021840D01*
X161958140Y-80356705D01*
X161935424Y-80702650D01*
X160383004Y-80702650D01*
X160390576Y-80587350D01*
X160345366Y-80243620D01*
X160233966Y-79915315D01*
X160124714Y-79710921D01*
X159847531Y-79600074D01*
X158802605Y-80645000D01*
X158443395Y-80645000D01*
X157398469Y-79600074D01*
X157121286Y-79710921D01*
X156967911Y-80021840D01*
X156878140Y-80356705D01*
X156855424Y-80702650D01*
X146835481Y-80702650D01*
X148117662Y-79420469D01*
X157578074Y-79420469D01*
X158623000Y-80465395D01*
X159667926Y-79420469D01*
X159557079Y-79143286D01*
X159246160Y-78989911D01*
X158911295Y-78900140D01*
X158565350Y-78877424D01*
X158221620Y-78922634D01*
X157893315Y-79034034D01*
X157688921Y-79143286D01*
X157578074Y-79420469D01*
X148117662Y-79420469D01*
X150319644Y-77218488D01*
X150368000Y-77223251D01*
X150661777Y-77194316D01*
X150944264Y-77108625D01*
X151204606Y-76969469D01*
X151432797Y-76782197D01*
X151620069Y-76554006D01*
X151638000Y-76520459D01*
X151655931Y-76554006D01*
X151843203Y-76782197D01*
X152071395Y-76969469D01*
X152331737Y-77108625D01*
X152614224Y-77194316D01*
X152908000Y-77223251D01*
X153201777Y-77194316D01*
X153484264Y-77108625D01*
X153744606Y-76969469D01*
X153972797Y-76782197D01*
X154160069Y-76554006D01*
X154178000Y-76520459D01*
X154195931Y-76554006D01*
X154383203Y-76782197D01*
X154611395Y-76969469D01*
X154871737Y-77108625D01*
X155154224Y-77194316D01*
X155448000Y-77223251D01*
X155741777Y-77194316D01*
X156024264Y-77108625D01*
X156284606Y-76969469D01*
X156512797Y-76782197D01*
X156700069Y-76554006D01*
X156718000Y-76520459D01*
X156735931Y-76554006D01*
X156923203Y-76782197D01*
X157151395Y-76969469D01*
X157411737Y-77108625D01*
X157694224Y-77194316D01*
X157988000Y-77223251D01*
X158281777Y-77194316D01*
X158564264Y-77108625D01*
X158824606Y-76969469D01*
X159052797Y-76782197D01*
X159240069Y-76554006D01*
X159258000Y-76520459D01*
X159275931Y-76554006D01*
X159463203Y-76782197D01*
X159691395Y-76969469D01*
X159951737Y-77108625D01*
X160234224Y-77194316D01*
X160528000Y-77223251D01*
X160821777Y-77194316D01*
X161104264Y-77108625D01*
X161364606Y-76969469D01*
X161592797Y-76782197D01*
X161780069Y-76554006D01*
X161798000Y-76520459D01*
X161815931Y-76554006D01*
X162003203Y-76782197D01*
X162231395Y-76969469D01*
X162491737Y-77108625D01*
X162774224Y-77194316D01*
X163068000Y-77223251D01*
X163361777Y-77194316D01*
X163644264Y-77108625D01*
X163904606Y-76969469D01*
X164132797Y-76782197D01*
X164320069Y-76554006D01*
X164459225Y-76293663D01*
X164544916Y-76011176D01*
X164566600Y-75791018D01*
X164566600Y-75338981D01*
X164544916Y-75118823D01*
X164459225Y-74836336D01*
X164320069Y-74575994D01*
X164132797Y-74347803D01*
X163904605Y-74160531D01*
X163644263Y-74021375D01*
X163361776Y-73935684D01*
X163068000Y-73906749D01*
X162774223Y-73935684D01*
X162491736Y-74021375D01*
X162231394Y-74160531D01*
X162003203Y-74347803D01*
X161815931Y-74575995D01*
X161798000Y-74609541D01*
X161780069Y-74575994D01*
X161592797Y-74347803D01*
X161364605Y-74160531D01*
X161104263Y-74021375D01*
X160821776Y-73935684D01*
X160528000Y-73906749D01*
X160234223Y-73935684D01*
X159951736Y-74021375D01*
X159691394Y-74160531D01*
X159463203Y-74347803D01*
X159275931Y-74575995D01*
X159258000Y-74609541D01*
X159240069Y-74575994D01*
X159052797Y-74347803D01*
X158824605Y-74160531D01*
X158564263Y-74021375D01*
X158281776Y-73935684D01*
X157988000Y-73906749D01*
X157939644Y-73911512D01*
X157763132Y-73735000D01*
X163789909Y-73735000D01*
X164898001Y-74843093D01*
%TA.AperFunction,Conductor*%
D21*
G36*
X164898001Y-74843093D02*
G01*
X164898001Y-79339811D01*
X164863291Y-79305101D01*
X164747925Y-79420467D01*
X164637079Y-79143286D01*
X164326160Y-78989911D01*
X163991295Y-78900140D01*
X163645350Y-78877424D01*
X163301620Y-78922634D01*
X162973315Y-79034034D01*
X162768921Y-79143286D01*
X162658074Y-79420469D01*
X163703000Y-80465395D01*
X163717143Y-80451253D01*
X163896748Y-80630858D01*
X163882605Y-80645000D01*
X163896748Y-80659143D01*
X163717143Y-80838748D01*
X163703000Y-80824605D01*
X162658074Y-81869531D01*
X162768921Y-82146714D01*
X163079840Y-82300089D01*
X163414705Y-82389860D01*
X163760650Y-82412576D01*
X164104380Y-82367366D01*
X164432685Y-82255966D01*
X164637079Y-82146714D01*
X164747925Y-81869533D01*
X164863291Y-81984899D01*
X164898000Y-81950190D01*
X164898000Y-84419810D01*
X164863291Y-84385101D01*
X164747925Y-84500467D01*
X164637079Y-84223286D01*
X164326160Y-84069911D01*
X163991295Y-83980140D01*
X163645350Y-83957424D01*
X163301620Y-84002634D01*
X162973315Y-84114034D01*
X162768921Y-84223286D01*
X162658074Y-84500469D01*
X163703000Y-85545395D01*
X163717143Y-85531253D01*
X163896748Y-85710858D01*
X163882605Y-85725000D01*
X164927531Y-86769926D01*
X165204714Y-86659079D01*
X165230901Y-86605992D01*
X167438001Y-88813093D01*
X167438001Y-88863294D01*
X167308113Y-88733406D01*
X166871298Y-88441536D01*
X166385935Y-88240492D01*
X165870677Y-88138000D01*
X165345323Y-88138000D01*
X164830065Y-88240492D01*
X164344702Y-88441536D01*
X163907887Y-88733406D01*
X163536406Y-89104887D01*
X163244536Y-89541702D01*
X163043492Y-90027065D01*
X162941000Y-90542323D01*
X162941000Y-91067677D01*
X163043492Y-91582935D01*
X163244536Y-92068298D01*
X163536406Y-92505113D01*
X163907887Y-92876594D01*
X164344702Y-93168464D01*
X164830065Y-93369508D01*
X165345323Y-93472000D01*
X165870677Y-93472000D01*
X166385935Y-93369508D01*
X166871298Y-93168464D01*
X167308113Y-92876594D01*
X167438001Y-92746706D01*
X167438000Y-116803293D01*
X167308113Y-116673406D01*
X166871298Y-116381536D01*
X166385935Y-116180492D01*
X165870677Y-116078000D01*
X165345323Y-116078000D01*
X164830065Y-116180492D01*
X164344702Y-116381536D01*
X163907887Y-116673406D01*
X163536406Y-117044887D01*
X163244536Y-117481702D01*
X163043492Y-117967065D01*
X162941000Y-118482323D01*
X162941000Y-119007677D01*
X163043492Y-119522935D01*
X163244536Y-120008298D01*
X163536406Y-120445113D01*
X163907887Y-120816594D01*
X164344702Y-121108464D01*
X164830065Y-121309508D01*
X165345323Y-121412000D01*
X165870677Y-121412000D01*
X166385935Y-121309508D01*
X166871298Y-121108464D01*
X167308113Y-120816594D01*
X167438000Y-120686707D01*
X167438000Y-120990908D01*
X165130617Y-123298292D01*
X165103526Y-123320525D01*
X165081293Y-123347616D01*
X165014801Y-123428637D01*
X164948872Y-123551981D01*
X164908274Y-123685816D01*
X164894565Y-123825000D01*
X164898001Y-123859885D01*
X164898000Y-125655000D01*
X147455831Y-125655000D01*
X148886473Y-124224358D01*
X148891084Y-124271177D01*
X148976775Y-124553664D01*
X149115931Y-124814006D01*
X149303203Y-125042197D01*
X149531395Y-125229469D01*
X149791737Y-125368625D01*
X150074224Y-125454316D01*
X150368000Y-125483251D01*
X150661777Y-125454316D01*
X150944264Y-125368625D01*
X151204606Y-125229469D01*
X151432797Y-125042197D01*
X151620069Y-124814006D01*
X151638000Y-124780459D01*
X151655931Y-124814006D01*
X151843203Y-125042197D01*
X152071395Y-125229469D01*
X152331737Y-125368625D01*
X152614224Y-125454316D01*
X152908000Y-125483251D01*
X153201777Y-125454316D01*
X153484264Y-125368625D01*
X153744606Y-125229469D01*
X153972797Y-125042197D01*
X154160069Y-124814006D01*
X154178000Y-124780459D01*
X154195931Y-124814006D01*
X154383203Y-125042197D01*
X154611395Y-125229469D01*
X154871737Y-125368625D01*
X155154224Y-125454316D01*
X155448000Y-125483251D01*
X155741777Y-125454316D01*
X156024264Y-125368625D01*
X156284606Y-125229469D01*
X156512797Y-125042197D01*
X156700069Y-124814006D01*
X156718000Y-124780459D01*
X156735931Y-124814006D01*
X156923203Y-125042197D01*
X157151395Y-125229469D01*
X157411737Y-125368625D01*
X157694224Y-125454316D01*
X157988000Y-125483251D01*
X158281777Y-125454316D01*
X158564264Y-125368625D01*
X158824606Y-125229469D01*
X159052797Y-125042197D01*
X159240069Y-124814006D01*
X159258000Y-124780459D01*
X159275931Y-124814006D01*
X159463203Y-125042197D01*
X159691395Y-125229469D01*
X159951737Y-125368625D01*
X160234224Y-125454316D01*
X160528000Y-125483251D01*
X160821777Y-125454316D01*
X161104264Y-125368625D01*
X161364606Y-125229469D01*
X161592797Y-125042197D01*
X161780069Y-124814006D01*
X161798000Y-124780459D01*
X161815931Y-124814006D01*
X162003203Y-125042197D01*
X162231395Y-125229469D01*
X162491737Y-125368625D01*
X162774224Y-125454316D01*
X163068000Y-125483251D01*
X163361777Y-125454316D01*
X163644264Y-125368625D01*
X163904606Y-125229469D01*
X164132797Y-125042197D01*
X164320069Y-124814006D01*
X164459225Y-124553663D01*
X164544916Y-124271176D01*
X164566600Y-124051018D01*
X164566600Y-123598981D01*
X164544916Y-123378823D01*
X164459225Y-123096336D01*
X164320069Y-122835994D01*
X164132797Y-122607803D01*
X163904605Y-122420531D01*
X163644263Y-122281375D01*
X163361776Y-122195684D01*
X163068000Y-122166749D01*
X162774223Y-122195684D01*
X162491736Y-122281375D01*
X162231394Y-122420531D01*
X162003203Y-122607803D01*
X161815931Y-122835995D01*
X161798000Y-122869541D01*
X161780069Y-122835994D01*
X161592797Y-122607803D01*
X161364605Y-122420531D01*
X161104263Y-122281375D01*
X160821776Y-122195684D01*
X160528000Y-122166749D01*
X160234223Y-122195684D01*
X159951736Y-122281375D01*
X159691394Y-122420531D01*
X159463203Y-122607803D01*
X159275931Y-122835995D01*
X159258000Y-122869541D01*
X159240069Y-122835994D01*
X159052797Y-122607803D01*
X158824605Y-122420531D01*
X158564263Y-122281375D01*
X158281776Y-122195684D01*
X157988000Y-122166749D01*
X157694223Y-122195684D01*
X157411736Y-122281375D01*
X157151394Y-122420531D01*
X156923203Y-122607803D01*
X156735931Y-122835995D01*
X156718000Y-122869541D01*
X156700069Y-122835994D01*
X156512797Y-122607803D01*
X156284605Y-122420531D01*
X156024263Y-122281375D01*
X155741776Y-122195684D01*
X155448000Y-122166749D01*
X155154223Y-122195684D01*
X154871736Y-122281375D01*
X154611394Y-122420531D01*
X154383203Y-122607803D01*
X154195931Y-122835995D01*
X154178000Y-122869541D01*
X154160069Y-122835994D01*
X153972797Y-122607803D01*
X153744605Y-122420531D01*
X153484263Y-122281375D01*
X153201776Y-122195684D01*
X152908000Y-122166749D01*
X152614223Y-122195684D01*
X152331736Y-122281375D01*
X152071394Y-122420531D01*
X151843203Y-122607803D01*
X151655931Y-122835995D01*
X151638000Y-122869541D01*
X151620069Y-122835994D01*
X151432797Y-122607803D01*
X151204605Y-122420531D01*
X150944263Y-122281375D01*
X150856177Y-122254654D01*
X162088288Y-111022544D01*
X162127912Y-110982920D01*
X162159045Y-110936326D01*
X162194583Y-110893023D01*
X162220988Y-110843622D01*
X162252124Y-110797024D01*
X162273572Y-110745243D01*
X162299975Y-110695847D01*
X162316235Y-110642248D01*
X162337683Y-110590467D01*
X162348615Y-110535506D01*
X162364877Y-110481900D01*
X162370368Y-110426146D01*
X162381300Y-110371188D01*
X162381300Y-110315153D01*
X162386791Y-110259401D01*
X162381300Y-110203649D01*
X162381300Y-110147612D01*
X162370368Y-110092652D01*
X162364877Y-110036902D01*
X162348616Y-109983299D01*
X162337683Y-109928333D01*
X162316233Y-109876549D01*
X162299975Y-109822954D01*
X162273574Y-109773561D01*
X162252124Y-109721776D01*
X162220986Y-109675174D01*
X162194583Y-109625778D01*
X162159049Y-109582480D01*
X162127912Y-109535880D01*
X162088281Y-109496249D01*
X162052748Y-109452952D01*
X162009451Y-109417419D01*
X161969820Y-109377788D01*
X161923220Y-109346651D01*
X161879922Y-109311117D01*
X161830526Y-109284714D01*
X161783924Y-109253576D01*
X161732139Y-109232126D01*
X161682746Y-109205725D01*
X161629151Y-109189467D01*
X161577367Y-109168017D01*
X161522401Y-109157084D01*
X161468798Y-109140823D01*
X161413048Y-109135332D01*
X161358088Y-109124400D01*
X161302051Y-109124400D01*
X161246299Y-109118909D01*
X161190547Y-109124400D01*
X161134512Y-109124400D01*
X161079554Y-109135332D01*
X161023800Y-109140823D01*
X160970194Y-109157085D01*
X160915233Y-109168017D01*
X160863452Y-109189465D01*
X160809853Y-109205725D01*
X160760457Y-109232128D01*
X160708676Y-109253576D01*
X160662078Y-109284712D01*
X160612677Y-109311117D01*
X160569374Y-109346655D01*
X160522780Y-109377788D01*
X160483156Y-109417412D01*
X146708320Y-123192249D01*
X146679225Y-123096336D01*
X146540069Y-122835994D01*
X146352797Y-122607803D01*
X146124605Y-122420531D01*
X145864263Y-122281375D01*
X145581776Y-122195684D01*
X145288000Y-122166749D01*
X144994223Y-122195684D01*
X144711736Y-122281375D01*
X144451394Y-122420531D01*
X144223203Y-122607803D01*
X144035931Y-122835995D01*
X144014576Y-122875947D01*
X143866486Y-122673271D01*
X143650035Y-122474267D01*
X143398919Y-122321314D01*
X143122789Y-122220291D01*
X143107026Y-122217642D01*
X142875000Y-122338783D01*
X142875000Y-123698000D01*
X142895000Y-123698000D01*
X142895000Y-123952000D01*
X142875000Y-123952000D01*
X142875000Y-123972000D01*
X142621000Y-123972000D01*
X142621000Y-123952000D01*
X140335000Y-123952000D01*
X140335000Y-123972000D01*
X140081000Y-123972000D01*
X140081000Y-123952000D01*
X140061000Y-123952000D01*
X140061000Y-123698000D01*
X140081000Y-123698000D01*
X140081000Y-122338783D01*
X140335000Y-122338783D01*
X140335000Y-123698000D01*
X142621000Y-123698000D01*
X142621000Y-122338783D01*
X142388974Y-122217642D01*
X142373211Y-122220291D01*
X142097081Y-122321314D01*
X141845965Y-122474267D01*
X141629514Y-122673271D01*
X141478000Y-122880633D01*
X141326486Y-122673271D01*
X141110035Y-122474267D01*
X140858919Y-122321314D01*
X140582789Y-122220291D01*
X140567026Y-122217642D01*
X140335000Y-122338783D01*
X140081000Y-122338783D01*
X139848974Y-122217642D01*
X139833211Y-122220291D01*
X139557081Y-122321314D01*
X139305965Y-122474267D01*
X139089514Y-122673271D01*
X138941424Y-122875947D01*
X138920069Y-122835994D01*
X138732797Y-122607803D01*
X138504605Y-122420531D01*
X138244263Y-122281375D01*
X137961776Y-122195684D01*
X137668000Y-122166749D01*
X137374223Y-122195684D01*
X137091736Y-122281375D01*
X136831394Y-122420531D01*
X136603203Y-122607803D01*
X136415931Y-122835995D01*
X136398000Y-122869541D01*
X136380069Y-122835994D01*
X136192797Y-122607803D01*
X135964605Y-122420531D01*
X135704263Y-122281375D01*
X135421776Y-122195684D01*
X135128000Y-122166749D01*
X135079643Y-122171512D01*
X134016196Y-121108065D01*
X133980649Y-121064751D01*
X133807823Y-120922916D01*
X133610647Y-120817524D01*
X133396699Y-120752623D01*
X133229952Y-120736200D01*
X133229951Y-120736200D01*
X133174200Y-120730709D01*
X133118449Y-120736200D01*
X131451736Y-120736200D01*
X125678920Y-114963314D01*
X125734920Y-114936641D01*
X125968269Y-114762588D01*
X126163178Y-114546355D01*
X126232805Y-114429466D01*
X126354525Y-114611632D01*
X126561368Y-114818475D01*
X126804589Y-114980990D01*
X127074842Y-115092932D01*
X127361740Y-115150000D01*
X127654260Y-115150000D01*
X127941158Y-115092932D01*
X128211411Y-114980990D01*
X128454632Y-114818475D01*
X128661475Y-114611632D01*
X128778000Y-114437240D01*
X128894525Y-114611632D01*
X129101368Y-114818475D01*
X129344589Y-114980990D01*
X129614842Y-115092932D01*
X129901740Y-115150000D01*
X130194260Y-115150000D01*
X130481158Y-115092932D01*
X130751411Y-114980990D01*
X130994632Y-114818475D01*
X131201475Y-114611632D01*
X131363990Y-114368411D01*
X131475932Y-114098158D01*
X131533000Y-113811260D01*
X131533000Y-113518740D01*
X131479484Y-113249700D01*
X150091549Y-113249700D01*
X150147300Y-113255191D01*
X150203051Y-113249700D01*
X150203052Y-113249700D01*
X150369799Y-113233277D01*
X150583747Y-113168376D01*
X150780923Y-113062984D01*
X150953749Y-112921149D01*
X150989296Y-112877835D01*
X156365441Y-107501691D01*
X156408749Y-107466149D01*
X156550584Y-107293323D01*
X156655976Y-107096147D01*
X156720877Y-106882199D01*
X156737300Y-106715452D01*
X156742791Y-106659700D01*
X156737300Y-106603949D01*
X156737300Y-101895041D01*
X156742790Y-101839299D01*
X156737300Y-101783557D01*
X156737300Y-101783548D01*
X156720877Y-101616801D01*
X156655976Y-101402853D01*
X156550584Y-101205677D01*
X156408749Y-101032851D01*
X156365441Y-100997309D01*
X150403132Y-95035000D01*
X161706928Y-95035000D01*
X161706928Y-96735000D01*
X161719188Y-96859482D01*
X161755498Y-96979180D01*
X161814463Y-97089494D01*
X161893815Y-97186185D01*
X161990506Y-97265537D01*
X162100820Y-97324502D01*
X162173380Y-97346513D01*
X162041525Y-97478368D01*
X161879010Y-97721589D01*
X161767068Y-97991842D01*
X161710000Y-98278740D01*
X161710000Y-98571260D01*
X161767068Y-98858158D01*
X161879010Y-99128411D01*
X162041525Y-99371632D01*
X162248368Y-99578475D01*
X162422760Y-99695000D01*
X162248368Y-99811525D01*
X162041525Y-100018368D01*
X161879010Y-100261589D01*
X161767068Y-100531842D01*
X161710000Y-100818740D01*
X161710000Y-101111260D01*
X161767068Y-101398158D01*
X161879010Y-101668411D01*
X162041525Y-101911632D01*
X162248368Y-102118475D01*
X162491589Y-102280990D01*
X162761842Y-102392932D01*
X163048740Y-102450000D01*
X163341260Y-102450000D01*
X163628158Y-102392932D01*
X163898411Y-102280990D01*
X164141632Y-102118475D01*
X164348475Y-101911632D01*
X164465000Y-101737240D01*
X164581525Y-101911632D01*
X164788368Y-102118475D01*
X165031589Y-102280990D01*
X165301842Y-102392932D01*
X165588740Y-102450000D01*
X165881260Y-102450000D01*
X166168158Y-102392932D01*
X166438411Y-102280990D01*
X166681632Y-102118475D01*
X166888475Y-101911632D01*
X167050990Y-101668411D01*
X167162932Y-101398158D01*
X167220000Y-101111260D01*
X167220000Y-100818740D01*
X167162932Y-100531842D01*
X167050990Y-100261589D01*
X166888475Y-100018368D01*
X166681632Y-99811525D01*
X166507240Y-99695000D01*
X166681632Y-99578475D01*
X166888475Y-99371632D01*
X167050990Y-99128411D01*
X167162932Y-98858158D01*
X167220000Y-98571260D01*
X167220000Y-98278740D01*
X167162932Y-97991842D01*
X167050990Y-97721589D01*
X166888475Y-97478368D01*
X166681632Y-97271525D01*
X166507240Y-97155000D01*
X166681632Y-97038475D01*
X166888475Y-96831632D01*
X167050990Y-96588411D01*
X167162932Y-96318158D01*
X167220000Y-96031260D01*
X167220000Y-95738740D01*
X167162932Y-95451842D01*
X167050990Y-95181589D01*
X166888475Y-94938368D01*
X166681632Y-94731525D01*
X166438411Y-94569010D01*
X166168158Y-94457068D01*
X165881260Y-94400000D01*
X165588740Y-94400000D01*
X165301842Y-94457068D01*
X165031589Y-94569010D01*
X164788368Y-94731525D01*
X164656513Y-94863380D01*
X164634502Y-94790820D01*
X164575537Y-94680506D01*
X164496185Y-94583815D01*
X164399494Y-94504463D01*
X164289180Y-94445498D01*
X164169482Y-94409188D01*
X164045000Y-94396928D01*
X162345000Y-94396928D01*
X162220518Y-94409188D01*
X162100820Y-94445498D01*
X161990506Y-94504463D01*
X161893815Y-94583815D01*
X161814463Y-94680506D01*
X161755498Y-94790820D01*
X161719188Y-94910518D01*
X161706928Y-95035000D01*
X150403132Y-95035000D01*
X148915751Y-93547620D01*
X149043077Y-93462544D01*
X149208000Y-93297621D01*
X149372923Y-93462544D01*
X149587482Y-93605907D01*
X149825887Y-93704658D01*
X150078976Y-93755000D01*
X150337024Y-93755000D01*
X150590113Y-93704658D01*
X150828518Y-93605907D01*
X151043077Y-93462544D01*
X151157221Y-93348400D01*
X151484205Y-93348400D01*
X151540630Y-93579621D01*
X151774808Y-93688017D01*
X152025633Y-93748645D01*
X152283465Y-93759174D01*
X152538398Y-93719200D01*
X152780633Y-93630259D01*
X152875370Y-93579621D01*
X152931795Y-93348400D01*
X152208000Y-92624605D01*
X151484205Y-93348400D01*
X151157221Y-93348400D01*
X151225544Y-93280077D01*
X151300559Y-93167809D01*
X151304600Y-93168795D01*
X152028395Y-92445000D01*
X151304600Y-91721205D01*
X151300559Y-91722191D01*
X151225544Y-91609923D01*
X151043077Y-91427456D01*
X150828518Y-91284093D01*
X150590113Y-91185342D01*
X150337024Y-91135000D01*
X150078976Y-91135000D01*
X149825887Y-91185342D01*
X149587482Y-91284093D01*
X149372923Y-91427456D01*
X149208000Y-91592379D01*
X149043077Y-91427456D01*
X148828518Y-91284093D01*
X148590113Y-91185342D01*
X148337024Y-91135000D01*
X148078976Y-91135000D01*
X147825887Y-91185342D01*
X147587482Y-91284093D01*
X147372923Y-91427456D01*
X147208000Y-91592379D01*
X147043077Y-91427456D01*
X146828518Y-91284093D01*
X146590113Y-91185342D01*
X146337024Y-91135000D01*
X146078976Y-91135000D01*
X145825887Y-91185342D01*
X145587482Y-91284093D01*
X145372923Y-91427456D01*
X145208000Y-91592379D01*
X145043077Y-91427456D01*
X144828518Y-91284093D01*
X144590113Y-91185342D01*
X144337024Y-91135000D01*
X144078976Y-91135000D01*
X143825887Y-91185342D01*
X143587482Y-91284093D01*
X143372923Y-91427456D01*
X143208000Y-91592379D01*
X143043077Y-91427456D01*
X142828518Y-91284093D01*
X142590113Y-91185342D01*
X142337024Y-91135000D01*
X142078976Y-91135000D01*
X141825887Y-91185342D01*
X141587482Y-91284093D01*
X141372923Y-91427456D01*
X141208000Y-91592379D01*
X141043077Y-91427456D01*
X140828518Y-91284093D01*
X140590113Y-91185342D01*
X140337024Y-91135000D01*
X140078976Y-91135000D01*
X139825887Y-91185342D01*
X139587482Y-91284093D01*
X139372923Y-91427456D01*
X139190456Y-91609923D01*
X139047093Y-91824482D01*
X138948342Y-92062887D01*
X138898000Y-92315976D01*
X138898000Y-92574024D01*
X138948342Y-92827113D01*
X139047093Y-93065518D01*
X139190456Y-93280077D01*
X139372923Y-93462544D01*
X139587482Y-93605907D01*
X139825887Y-93704658D01*
X140078976Y-93755000D01*
X140337024Y-93755000D01*
X140590113Y-93704658D01*
X140828518Y-93605907D01*
X141043077Y-93462544D01*
X141208000Y-93297621D01*
X141372923Y-93462544D01*
X141587482Y-93605907D01*
X141825887Y-93704658D01*
X142078976Y-93755000D01*
X142337024Y-93755000D01*
X142590113Y-93704658D01*
X142828518Y-93605907D01*
X143043077Y-93462544D01*
X143208000Y-93297621D01*
X143372923Y-93462544D01*
X143587482Y-93605907D01*
X143825887Y-93704658D01*
X144078976Y-93755000D01*
X144337024Y-93755000D01*
X144590113Y-93704658D01*
X144828518Y-93605907D01*
X145043077Y-93462544D01*
X145208000Y-93297621D01*
X145372923Y-93462544D01*
X145587482Y-93605907D01*
X145825887Y-93704658D01*
X145871625Y-93713756D01*
X154467300Y-102309432D01*
X154467301Y-104759951D01*
X154390367Y-104741355D01*
X154132535Y-104730826D01*
X153877602Y-104770800D01*
X153635367Y-104859741D01*
X153540630Y-104910379D01*
X153484205Y-105141600D01*
X154208000Y-105865395D01*
X154222143Y-105851253D01*
X154401748Y-106030858D01*
X154387605Y-106045000D01*
X154401748Y-106059143D01*
X154222143Y-106238748D01*
X154208000Y-106224605D01*
X153484205Y-106948400D01*
X153528197Y-107128671D01*
X149677169Y-110979700D01*
X140878431Y-110979700D01*
X144544378Y-107313755D01*
X144590113Y-107304658D01*
X144828518Y-107205907D01*
X145043077Y-107062544D01*
X145208000Y-106897621D01*
X145372923Y-107062544D01*
X145587482Y-107205907D01*
X145825887Y-107304658D01*
X146078976Y-107355000D01*
X146337024Y-107355000D01*
X146590113Y-107304658D01*
X146828518Y-107205907D01*
X147043077Y-107062544D01*
X147208000Y-106897621D01*
X147372923Y-107062544D01*
X147587482Y-107205907D01*
X147825887Y-107304658D01*
X148078976Y-107355000D01*
X148337024Y-107355000D01*
X148590113Y-107304658D01*
X148828518Y-107205907D01*
X149043077Y-107062544D01*
X149208000Y-106897621D01*
X149372923Y-107062544D01*
X149587482Y-107205907D01*
X149825887Y-107304658D01*
X150078976Y-107355000D01*
X150337024Y-107355000D01*
X150590113Y-107304658D01*
X150828518Y-107205907D01*
X151043077Y-107062544D01*
X151208000Y-106897621D01*
X151372923Y-107062544D01*
X151587482Y-107205907D01*
X151825887Y-107304658D01*
X152078976Y-107355000D01*
X152337024Y-107355000D01*
X152590113Y-107304658D01*
X152828518Y-107205907D01*
X153043077Y-107062544D01*
X153225544Y-106880077D01*
X153300559Y-106767809D01*
X153304600Y-106768795D01*
X154028395Y-106045000D01*
X153304600Y-105321205D01*
X153300559Y-105322191D01*
X153225544Y-105209923D01*
X153043077Y-105027456D01*
X152828518Y-104884093D01*
X152590113Y-104785342D01*
X152337024Y-104735000D01*
X152078976Y-104735000D01*
X151825887Y-104785342D01*
X151587482Y-104884093D01*
X151372923Y-105027456D01*
X151208000Y-105192379D01*
X151043077Y-105027456D01*
X150828518Y-104884093D01*
X150590113Y-104785342D01*
X150544377Y-104776245D01*
X138131296Y-92363165D01*
X138095749Y-92319851D01*
X137922923Y-92178016D01*
X137725747Y-92072624D01*
X137511799Y-92007723D01*
X137345052Y-91991300D01*
X137345051Y-91991300D01*
X137289300Y-91985809D01*
X137233549Y-91991300D01*
X132439700Y-91991300D01*
X132439700Y-88048499D01*
X132581084Y-87876223D01*
X132686476Y-87679047D01*
X132751377Y-87465099D01*
X132767800Y-87298352D01*
X132767800Y-87298343D01*
X132773290Y-87242601D01*
X132767800Y-87186859D01*
X132767800Y-86276212D01*
X132781733Y-86281983D01*
X132836694Y-86292915D01*
X132890301Y-86309177D01*
X132946053Y-86314668D01*
X133001012Y-86325600D01*
X140686649Y-86325600D01*
X140742400Y-86331091D01*
X140798151Y-86325600D01*
X140798152Y-86325600D01*
X140964899Y-86309177D01*
X141178847Y-86244276D01*
X141376023Y-86138884D01*
X141548849Y-85997049D01*
X141584396Y-85953735D01*
X145203131Y-82335000D01*
X147609928Y-82335000D01*
X147609928Y-84035000D01*
X147622188Y-84159482D01*
X147658498Y-84279180D01*
X147717463Y-84389494D01*
X147796815Y-84486185D01*
X147893506Y-84565537D01*
X148003820Y-84624502D01*
X148123518Y-84660812D01*
X148248000Y-84673072D01*
X149948000Y-84673072D01*
X150072482Y-84660812D01*
X150192180Y-84624502D01*
X150302494Y-84565537D01*
X150399185Y-84486185D01*
X150478537Y-84389494D01*
X150515683Y-84320000D01*
X151923499Y-84320000D01*
X151977815Y-84386185D01*
X152074506Y-84465537D01*
X152184820Y-84524502D01*
X152304518Y-84560812D01*
X152429000Y-84573072D01*
X153094001Y-84573072D01*
X153094000Y-91470286D01*
X153048553Y-91424839D01*
X152931794Y-91541598D01*
X152875370Y-91310379D01*
X152641192Y-91201983D01*
X152390367Y-91141355D01*
X152132535Y-91130826D01*
X151877602Y-91170800D01*
X151635367Y-91259741D01*
X151540630Y-91310379D01*
X151484205Y-91541600D01*
X152208000Y-92265395D01*
X152222143Y-92251253D01*
X152401748Y-92430858D01*
X152387605Y-92445000D01*
X153111400Y-93168795D01*
X153115441Y-93167809D01*
X153190456Y-93280077D01*
X153372923Y-93462544D01*
X153587482Y-93605907D01*
X153825887Y-93704658D01*
X154078976Y-93755000D01*
X154337024Y-93755000D01*
X154590113Y-93704658D01*
X154828518Y-93605907D01*
X155043077Y-93462544D01*
X155225544Y-93280077D01*
X155368907Y-93065518D01*
X155467658Y-92827113D01*
X155518000Y-92574024D01*
X155518000Y-92315976D01*
X155467658Y-92062887D01*
X155368907Y-91824482D01*
X155364000Y-91817138D01*
X155364000Y-86949531D01*
X157578074Y-86949531D01*
X157688921Y-87226714D01*
X157999840Y-87380089D01*
X158334705Y-87469860D01*
X158680650Y-87492576D01*
X159024380Y-87447366D01*
X159352685Y-87335966D01*
X159557079Y-87226714D01*
X159667926Y-86949531D01*
X162658074Y-86949531D01*
X162768921Y-87226714D01*
X163079840Y-87380089D01*
X163414705Y-87469860D01*
X163760650Y-87492576D01*
X164104380Y-87447366D01*
X164432685Y-87335966D01*
X164637079Y-87226714D01*
X164747926Y-86949531D01*
X163703000Y-85904605D01*
X162658074Y-86949531D01*
X159667926Y-86949531D01*
X158623000Y-85904605D01*
X157578074Y-86949531D01*
X155364000Y-86949531D01*
X155364000Y-85782650D01*
X156855424Y-85782650D01*
X156900634Y-86126380D01*
X157012034Y-86454685D01*
X157121286Y-86659079D01*
X157398469Y-86769926D01*
X158443395Y-85725000D01*
X158802605Y-85725000D01*
X159847531Y-86769926D01*
X160124714Y-86659079D01*
X160278089Y-86348160D01*
X160367860Y-86013295D01*
X160383004Y-85782650D01*
X161935424Y-85782650D01*
X161980634Y-86126380D01*
X162092034Y-86454685D01*
X162201286Y-86659079D01*
X162478469Y-86769926D01*
X163523395Y-85725000D01*
X162478469Y-84680074D01*
X162201286Y-84790921D01*
X162047911Y-85101840D01*
X161958140Y-85436705D01*
X161935424Y-85782650D01*
X160383004Y-85782650D01*
X160390576Y-85667350D01*
X160345366Y-85323620D01*
X160233966Y-84995315D01*
X160124714Y-84790921D01*
X159847531Y-84680074D01*
X158802605Y-85725000D01*
X158443395Y-85725000D01*
X157398469Y-84680074D01*
X157121286Y-84790921D01*
X156967911Y-85101840D01*
X156878140Y-85436705D01*
X156855424Y-85782650D01*
X155364000Y-85782650D01*
X155364000Y-84573072D01*
X156029000Y-84573072D01*
X156153482Y-84560812D01*
X156273180Y-84524502D01*
X156383494Y-84465537D01*
X156480185Y-84386185D01*
X156534501Y-84320000D01*
X157650245Y-84320000D01*
X157578074Y-84500469D01*
X158623000Y-85545395D01*
X159667926Y-84500469D01*
X159595755Y-84320000D01*
X159808984Y-84320000D01*
X160041065Y-84552081D01*
X160329327Y-84744692D01*
X160649627Y-84877364D01*
X160989655Y-84945000D01*
X161336345Y-84945000D01*
X161676373Y-84877364D01*
X161996673Y-84744692D01*
X162284935Y-84552081D01*
X162530081Y-84306935D01*
X162722692Y-84018673D01*
X162855364Y-83698373D01*
X162923000Y-83358345D01*
X162923000Y-83011655D01*
X162855364Y-82671627D01*
X162722692Y-82351327D01*
X162530081Y-82063065D01*
X162284935Y-81817919D01*
X161996673Y-81625308D01*
X161676373Y-81492636D01*
X161336345Y-81425000D01*
X160989655Y-81425000D01*
X160649627Y-81492636D01*
X160329327Y-81625308D01*
X160041065Y-81817919D01*
X159808984Y-82050000D01*
X159595755Y-82050000D01*
X159667926Y-81869531D01*
X158623000Y-80824605D01*
X157578074Y-81869531D01*
X157650245Y-82050000D01*
X156534501Y-82050000D01*
X156480185Y-81983815D01*
X156383494Y-81904463D01*
X156273180Y-81845498D01*
X156153482Y-81809188D01*
X156029000Y-81796928D01*
X155029000Y-81796928D01*
X154904518Y-81809188D01*
X154879000Y-81816929D01*
X154853482Y-81809188D01*
X154729000Y-81796928D01*
X153729000Y-81796928D01*
X153604518Y-81809188D01*
X153579000Y-81816929D01*
X153553482Y-81809188D01*
X153429000Y-81796928D01*
X152429000Y-81796928D01*
X152304518Y-81809188D01*
X152184820Y-81845498D01*
X152074506Y-81904463D01*
X151977815Y-81983815D01*
X151923499Y-82050000D01*
X150515683Y-82050000D01*
X150478537Y-81980506D01*
X150399185Y-81883815D01*
X150302494Y-81804463D01*
X150192180Y-81745498D01*
X150072482Y-81709188D01*
X149948000Y-81696928D01*
X148248000Y-81696928D01*
X148123518Y-81709188D01*
X148003820Y-81745498D01*
X147893506Y-81804463D01*
X147796815Y-81883815D01*
X147717463Y-81980506D01*
X147658498Y-82090820D01*
X147622188Y-82210518D01*
X147609928Y-82335000D01*
X145203131Y-82335000D01*
X146835481Y-80702650D01*
X156855424Y-80702650D01*
X156900634Y-81046380D01*
X157012034Y-81374685D01*
X157121286Y-81579079D01*
X157398469Y-81689926D01*
X158443395Y-80645000D01*
X158802605Y-80645000D01*
X159847531Y-81689926D01*
X160124714Y-81579079D01*
X160278089Y-81268160D01*
X160367860Y-80933295D01*
X160383004Y-80702650D01*
X161935424Y-80702650D01*
X161980634Y-81046380D01*
X162092034Y-81374685D01*
X162201286Y-81579079D01*
X162478469Y-81689926D01*
X163523395Y-80645000D01*
X162478469Y-79600074D01*
X162201286Y-79710921D01*
X162047911Y-80021840D01*
X161958140Y-80356705D01*
X161935424Y-80702650D01*
X160383004Y-80702650D01*
X160390576Y-80587350D01*
X160345366Y-80243620D01*
X160233966Y-79915315D01*
X160124714Y-79710921D01*
X159847531Y-79600074D01*
X158802605Y-80645000D01*
X158443395Y-80645000D01*
X157398469Y-79600074D01*
X157121286Y-79710921D01*
X156967911Y-80021840D01*
X156878140Y-80356705D01*
X156855424Y-80702650D01*
X146835481Y-80702650D01*
X148117662Y-79420469D01*
X157578074Y-79420469D01*
X158623000Y-80465395D01*
X159667926Y-79420469D01*
X159557079Y-79143286D01*
X159246160Y-78989911D01*
X158911295Y-78900140D01*
X158565350Y-78877424D01*
X158221620Y-78922634D01*
X157893315Y-79034034D01*
X157688921Y-79143286D01*
X157578074Y-79420469D01*
X148117662Y-79420469D01*
X150319644Y-77218488D01*
X150368000Y-77223251D01*
X150661777Y-77194316D01*
X150944264Y-77108625D01*
X151204606Y-76969469D01*
X151432797Y-76782197D01*
X151620069Y-76554006D01*
X151638000Y-76520459D01*
X151655931Y-76554006D01*
X151843203Y-76782197D01*
X152071395Y-76969469D01*
X152331737Y-77108625D01*
X152614224Y-77194316D01*
X152908000Y-77223251D01*
X153201777Y-77194316D01*
X153484264Y-77108625D01*
X153744606Y-76969469D01*
X153972797Y-76782197D01*
X154160069Y-76554006D01*
X154178000Y-76520459D01*
X154195931Y-76554006D01*
X154383203Y-76782197D01*
X154611395Y-76969469D01*
X154871737Y-77108625D01*
X155154224Y-77194316D01*
X155448000Y-77223251D01*
X155741777Y-77194316D01*
X156024264Y-77108625D01*
X156284606Y-76969469D01*
X156512797Y-76782197D01*
X156700069Y-76554006D01*
X156718000Y-76520459D01*
X156735931Y-76554006D01*
X156923203Y-76782197D01*
X157151395Y-76969469D01*
X157411737Y-77108625D01*
X157694224Y-77194316D01*
X157988000Y-77223251D01*
X158281777Y-77194316D01*
X158564264Y-77108625D01*
X158824606Y-76969469D01*
X159052797Y-76782197D01*
X159240069Y-76554006D01*
X159258000Y-76520459D01*
X159275931Y-76554006D01*
X159463203Y-76782197D01*
X159691395Y-76969469D01*
X159951737Y-77108625D01*
X160234224Y-77194316D01*
X160528000Y-77223251D01*
X160821777Y-77194316D01*
X161104264Y-77108625D01*
X161364606Y-76969469D01*
X161592797Y-76782197D01*
X161780069Y-76554006D01*
X161798000Y-76520459D01*
X161815931Y-76554006D01*
X162003203Y-76782197D01*
X162231395Y-76969469D01*
X162491737Y-77108625D01*
X162774224Y-77194316D01*
X163068000Y-77223251D01*
X163361777Y-77194316D01*
X163644264Y-77108625D01*
X163904606Y-76969469D01*
X164132797Y-76782197D01*
X164320069Y-76554006D01*
X164459225Y-76293663D01*
X164544916Y-76011176D01*
X164566600Y-75791018D01*
X164566600Y-75338981D01*
X164544916Y-75118823D01*
X164459225Y-74836336D01*
X164320069Y-74575994D01*
X164132797Y-74347803D01*
X163904605Y-74160531D01*
X163644263Y-74021375D01*
X163361776Y-73935684D01*
X163068000Y-73906749D01*
X162774223Y-73935684D01*
X162491736Y-74021375D01*
X162231394Y-74160531D01*
X162003203Y-74347803D01*
X161815931Y-74575995D01*
X161798000Y-74609541D01*
X161780069Y-74575994D01*
X161592797Y-74347803D01*
X161364605Y-74160531D01*
X161104263Y-74021375D01*
X160821776Y-73935684D01*
X160528000Y-73906749D01*
X160234223Y-73935684D01*
X159951736Y-74021375D01*
X159691394Y-74160531D01*
X159463203Y-74347803D01*
X159275931Y-74575995D01*
X159258000Y-74609541D01*
X159240069Y-74575994D01*
X159052797Y-74347803D01*
X158824605Y-74160531D01*
X158564263Y-74021375D01*
X158281776Y-73935684D01*
X157988000Y-73906749D01*
X157939644Y-73911512D01*
X157763132Y-73735000D01*
X163789909Y-73735000D01*
X164898001Y-74843093D01*
G37*
%TD.AperFunction*%
D20*
X125095000Y-113538000D02*
X125115000Y-113538000D01*
X125115000Y-113792000D01*
X125095000Y-113792000D01*
X125095000Y-113812000D01*
X124841000Y-113812000D01*
X124841000Y-113792000D01*
X124821000Y-113792000D01*
X124821000Y-113538000D01*
X124841000Y-113538000D01*
X124841000Y-113518000D01*
X125095000Y-113518000D01*
X125095000Y-113538000D01*
%TA.AperFunction,Conductor*%
D21*
G36*
X125095000Y-113538000D02*
G01*
X125115000Y-113538000D01*
X125115000Y-113792000D01*
X125095000Y-113792000D01*
X125095000Y-113812000D01*
X124841000Y-113812000D01*
X124841000Y-113792000D01*
X124821000Y-113792000D01*
X124821000Y-113538000D01*
X124841000Y-113538000D01*
X124841000Y-113518000D01*
X125095000Y-113518000D01*
X125095000Y-113538000D01*
G37*
%TD.AperFunction*%
D20*
X139056750Y-105918000D02*
X140081000Y-105918000D01*
X140081000Y-105898000D01*
X140335000Y-105898000D01*
X140335000Y-105918000D01*
X140355000Y-105918000D01*
X140355000Y-106172000D01*
X140335000Y-106172000D01*
X140335000Y-107196250D01*
X140493750Y-107355000D01*
X140883000Y-107358072D01*
X141007482Y-107345812D01*
X141127180Y-107309502D01*
X141237494Y-107250537D01*
X141334185Y-107171185D01*
X141405487Y-107084303D01*
X141500248Y-107147620D01*
X139211169Y-109436700D01*
X132692031Y-109436700D01*
X135408731Y-106720000D01*
X138894928Y-106720000D01*
X138907188Y-106844482D01*
X138943498Y-106964180D01*
X139002463Y-107074494D01*
X139081815Y-107171185D01*
X139178506Y-107250537D01*
X139288820Y-107309502D01*
X139408518Y-107345812D01*
X139533000Y-107358072D01*
X139922250Y-107355000D01*
X140081000Y-107196250D01*
X140081000Y-106172000D01*
X139056750Y-106172000D01*
X138898000Y-106330750D01*
X138894928Y-106720000D01*
X135408731Y-106720000D01*
X136324032Y-105804700D01*
X138943450Y-105804700D01*
X139056750Y-105918000D01*
%TA.AperFunction,Conductor*%
D21*
G36*
X139056750Y-105918000D02*
G01*
X140081000Y-105918000D01*
X140081000Y-105898000D01*
X140335000Y-105898000D01*
X140335000Y-105918000D01*
X140355000Y-105918000D01*
X140355000Y-106172000D01*
X140335000Y-106172000D01*
X140335000Y-107196250D01*
X140493750Y-107355000D01*
X140883000Y-107358072D01*
X141007482Y-107345812D01*
X141127180Y-107309502D01*
X141237494Y-107250537D01*
X141334185Y-107171185D01*
X141405487Y-107084303D01*
X141500248Y-107147620D01*
X139211169Y-109436700D01*
X132692031Y-109436700D01*
X135408731Y-106720000D01*
X138894928Y-106720000D01*
X138907188Y-106844482D01*
X138943498Y-106964180D01*
X139002463Y-107074494D01*
X139081815Y-107171185D01*
X139178506Y-107250537D01*
X139288820Y-107309502D01*
X139408518Y-107345812D01*
X139533000Y-107358072D01*
X139922250Y-107355000D01*
X140081000Y-107196250D01*
X140081000Y-106172000D01*
X139056750Y-106172000D01*
X138898000Y-106330750D01*
X138894928Y-106720000D01*
X135408731Y-106720000D01*
X136324032Y-105804700D01*
X138943450Y-105804700D01*
X139056750Y-105918000D01*
G37*
%TD.AperFunction*%
%TD*%
M02*
