M48
; DRILL file {KiCad 5.1.9+dfsg1-1+deb11u1} date Thu Jun 15 15:49:43 2023
; FORMAT={-:-/ absolute / inch / decimal}
; #@! TF.CreationDate,2023-06-15T15:49:43+02:00
; #@! TF.GenerationSoftware,Kicad,Pcbnew,5.1.9+dfsg1-1+deb11u1
; #@! TF.FileFunction,Plated,1,2,PTH
FMAT,2
INCH
T1C0.0236
T2C0.0315
T3C0.0394
T4C0.0400
T5C0.0591
T6C0.1200
%
G90
G05
T1
X4.5842Y-3.9259
X4.8727Y-3.9054
X4.8727Y-3.9538
X4.9721Y-4.306
X5.2011Y-3.1521
X5.2167Y-3.6664
X5.2182Y-3.7149
X5.2407Y-3.354
X5.2495Y-3.0762
X6.3483Y-4.3409
T2
X5.52Y-3.6396
X5.52Y-4.175
X5.5987Y-3.6396
X5.5987Y-4.175
X5.6775Y-3.6396
X5.6775Y-4.175
X5.7562Y-3.6396
X5.7562Y-4.175
X5.835Y-3.6396
X5.835Y-4.175
X5.9137Y-3.6396
X5.9137Y-4.175
X5.9924Y-3.6396
X5.9924Y-4.175
X6.0712Y-3.6396
X6.0712Y-4.175
T3
X4.62Y-3.375
X4.62Y-3.775
X4.62Y-4.075
X4.62Y-4.475
X4.72Y-3.375
X4.72Y-3.775
X4.72Y-4.075
X4.72Y-4.475
X4.82Y-3.375
X4.82Y-3.775
X4.82Y-4.075
X4.82Y-4.475
X4.92Y-3.375
X4.92Y-3.775
X4.92Y-4.075
X4.92Y-4.475
X5.02Y-3.375
X5.02Y-3.775
X5.02Y-4.075
X5.02Y-4.475
X5.12Y-3.375
X5.12Y-3.775
X5.12Y-4.075
X5.12Y-4.475
X5.87Y-3.275
X6.425Y-3.775
X6.425Y-3.875
X6.425Y-3.975
X6.525Y-3.775
X6.525Y-3.875
X6.525Y-3.975
T4
X4.66Y-2.975
X4.76Y-2.975
X4.86Y-2.975
X4.96Y-2.975
X5.02Y-4.875
X5.06Y-2.975
X5.12Y-4.875
X5.16Y-2.975
X5.22Y-4.875
X5.26Y-2.975
X5.32Y-4.875
X5.36Y-2.975
X5.42Y-4.875
X5.46Y-2.975
X5.52Y-4.875
X5.56Y-2.975
X5.62Y-4.875
X5.72Y-2.975
X5.72Y-4.875
X5.82Y-2.975
X5.92Y-2.975
X5.92Y-4.875
X6.02Y-2.975
X6.02Y-4.875
X6.12Y-2.975
X6.12Y-4.875
X6.22Y-2.975
X6.22Y-4.875
X6.32Y-2.975
X6.32Y-4.875
X6.42Y-2.975
X6.42Y-4.875
T5
X6.245Y-3.175
X6.245Y-3.375
X6.345Y-3.275
X6.445Y-3.175
X6.445Y-3.375
T6
X4.47Y-4.875
X4.52Y-2.975
X6.52Y-3.575
X6.52Y-4.675
T0
M30
